<svg id="svg" xmlns="http://www.w3.org/2000/svg" xmlns:xlink="http://www.w3.org/1999/xlink" width="400" height="400" viewBox="0, 0, 400,400"><g id="svgg"><path id="path0" d="M186.400 82.041 C 125.570 82.174,74.675 82.309,73.300 82.341 L 70.800 82.400 70.800 184.800 C 70.800 275.556,70.868 287.200,71.400 287.200 C 71.900 287.200,72.000 288.000,72.000 292.000 C 72.000 294.933,72.156 296.800,72.400 296.800 C 72.620 296.800,72.800 297.599,72.800 298.576 C 72.800 299.553,72.980 300.464,73.200 300.600 C 73.420 300.736,73.600 301.456,73.600 302.200 C 73.600 302.944,73.780 303.664,74.000 303.800 C 74.220 303.936,74.400 304.487,74.400 305.024 C 74.400 305.561,74.580 306.000,74.800 306.000 C 75.020 306.000,75.200 306.360,75.200 306.800 C 75.200 307.240,75.380 307.600,75.600 307.600 C 75.820 307.600,76.000 308.140,76.000 308.800 C 76.000 309.460,76.180 310.000,76.400 310.000 C 76.620 310.000,76.800 310.360,76.800 310.800 C 76.800 311.240,76.980 311.600,77.200 311.600 C 77.420 311.600,77.600 311.960,77.600 312.400 C 77.600 312.840,77.735 313.201,77.900 313.203 C 78.259 313.207,79.200 315.144,79.200 315.880 C 79.200 316.166,79.380 316.400,79.600 316.400 C 79.820 316.400,80.000 316.717,80.000 317.104 C 80.000 317.491,80.360 318.032,80.800 318.307 C 81.240 318.582,81.600 319.042,81.600 319.329 C 81.600 319.616,82.143 320.370,82.806 321.006 C 83.470 321.642,83.964 322.309,83.904 322.488 C 83.747 322.960,93.580 332.860,93.968 332.620 C 94.147 332.509,94.615 332.775,95.009 333.209 C 95.402 333.644,95.938 334.000,96.200 334.000 C 96.462 334.000,97.002 334.360,97.400 334.800 C 97.798 335.240,98.356 335.600,98.639 335.600 C 98.923 335.600,99.437 336.003,99.782 336.496 C 100.127 336.988,100.632 337.413,100.905 337.438 C 101.902 337.532,103.200 338.103,103.200 338.447 C 103.200 338.641,103.560 338.800,104.000 338.800 C 104.440 338.800,104.800 338.980,104.800 339.200 C 104.800 339.420,105.340 339.600,106.000 339.600 C 106.660 339.600,107.200 339.780,107.200 340.000 C 107.200 340.220,107.560 340.400,108.000 340.400 C 108.440 340.400,108.800 340.630,108.800 340.911 C 108.800 341.265,109.289 341.374,110.400 341.269 C 111.393 341.174,112.000 341.284,112.000 341.558 C 112.000 341.801,112.540 342.000,113.200 342.000 C 113.897 342.000,114.400 342.211,114.400 342.503 C 114.400 342.853,114.945 342.962,116.197 342.863 C 117.443 342.764,118.058 342.886,118.202 343.260 C 118.374 343.711,127.868 343.783,175.504 343.698 C 236.509 343.588,234.050 343.669,235.621 341.719 C 237.103 339.879,237.200 339.257,237.200 331.612 L 237.200 324.014 235.420 322.156 C 234.312 321.000,233.417 320.385,233.049 320.526 C 232.724 320.650,232.241 320.491,231.976 320.171 C 231.557 319.666,224.473 319.591,179.077 319.606 C 139.359 319.619,126.591 319.510,126.371 319.154 C 126.190 318.861,125.608 318.778,124.825 318.935 C 123.932 319.114,123.507 319.022,123.352 318.618 C 123.232 318.306,122.870 318.152,122.548 318.275 C 121.867 318.536,116.907 316.155,115.953 315.109 C 115.597 314.719,115.057 314.398,114.753 314.396 C 114.449 314.394,113.775 313.854,113.255 313.196 C 112.735 312.538,112.057 312.000,111.748 312.000 C 111.084 312.000,106.000 307.018,106.000 306.368 C 106.000 306.122,105.460 305.417,104.800 304.800 C 104.140 304.183,103.600 303.435,103.600 303.136 C 103.600 302.837,103.240 302.368,102.800 302.093 C 102.360 301.818,102.000 301.241,102.000 300.811 C 102.000 300.380,101.648 299.840,101.217 299.609 C 100.781 299.376,100.319 298.573,100.173 297.795 C 100.029 297.028,99.751 296.400,99.555 296.400 C 99.360 296.400,99.200 296.040,99.200 295.600 C 99.200 295.160,99.020 294.800,98.800 294.800 C 98.580 294.800,98.400 294.440,98.400 294.000 C 98.400 293.560,98.220 293.200,98.000 293.200 C 97.780 293.200,97.600 292.840,97.600 292.400 C 97.600 291.960,97.420 291.600,97.200 291.600 C 96.980 291.600,96.800 291.060,96.800 290.400 C 96.800 289.740,96.620 289.200,96.400 289.200 C 96.136 289.200,96.000 273.800,96.000 243.800 L 96.000 198.400 210.200 198.400 C 273.010 198.400,324.535 198.400,324.700 198.400 C 324.865 198.400,325.000 203.035,325.000 208.700 C 325.000 216.503,325.121 219.078,325.500 219.320 C 325.775 219.496,326.000 219.901,326.000 220.220 C 326.000 220.539,326.180 220.800,326.400 220.800 C 326.620 220.800,326.800 221.124,326.800 221.520 C 326.800 222.442,327.558 223.200,328.480 223.200 C 328.876 223.200,329.200 223.380,329.200 223.600 C 329.200 223.852,331.867 224.000,336.400 224.000 C 340.933 224.000,343.600 223.852,343.600 223.600 C 343.600 223.380,343.960 223.200,344.400 223.200 C 344.840 223.200,345.200 223.020,345.200 222.800 C 345.200 222.580,345.524 222.400,345.920 222.400 C 346.842 222.400,347.600 221.642,347.600 220.720 C 347.600 220.324,347.791 220.000,348.024 220.000 C 348.257 220.000,348.345 219.835,348.220 219.632 C 348.095 219.430,348.263 218.994,348.593 218.664 C 349.386 217.871,349.724 134.000,348.933 134.000 C 348.234 134.000,348.092 133.242,348.312 130.700 C 348.448 129.130,348.367 128.400,348.056 128.400 C 347.791 128.400,347.600 127.730,347.600 126.800 C 347.600 125.920,347.420 125.200,347.200 125.200 C 346.980 125.200,346.800 124.480,346.800 123.600 C 346.800 122.720,346.620 122.000,346.400 122.000 C 346.180 122.000,346.000 121.561,346.000 121.024 C 346.000 120.487,345.820 119.936,345.600 119.800 C 345.380 119.664,345.200 119.220,345.200 118.814 C 345.200 118.016,343.591 114.685,343.100 114.467 C 342.935 114.393,342.800 113.988,342.800 113.567 C 342.800 113.145,342.620 112.800,342.400 112.800 C 342.180 112.800,342.000 112.440,342.000 112.000 C 342.000 111.560,341.820 111.200,341.600 111.200 C 341.380 111.200,341.200 110.880,341.200 110.488 C 341.200 110.097,340.840 109.517,340.400 109.200 C 339.960 108.883,339.600 108.343,339.600 108.000 C 339.600 107.657,339.240 107.117,338.800 106.800 C 338.360 106.483,338.000 105.937,338.000 105.588 C 338.000 105.238,337.284 104.333,336.409 103.576 C 335.534 102.819,334.814 101.951,334.809 101.648 C 334.798 100.980,329.452 95.600,328.799 95.600 C 328.545 95.600,327.646 94.880,326.800 94.000 C 325.954 93.120,325.018 92.400,324.720 92.400 C 324.421 92.400,323.917 92.040,323.600 91.600 C 323.283 91.160,322.703 90.800,322.312 90.800 C 321.920 90.800,321.600 90.620,321.600 90.400 C 321.600 90.180,321.240 90.000,320.800 90.000 C 320.360 90.000,320.000 89.820,320.000 89.600 C 320.000 89.380,319.683 89.200,319.296 89.200 C 318.909 89.200,318.368 88.840,318.093 88.400 C 317.816 87.956,317.160 87.600,316.620 87.600 C 316.085 87.600,315.534 87.417,315.396 87.193 C 315.258 86.970,314.998 86.878,314.818 86.989 C 314.638 87.100,314.268 86.923,313.996 86.596 C 313.724 86.268,313.254 86.000,312.951 86.000 C 312.648 86.000,312.400 85.800,312.400 85.557 C 312.400 85.282,312.015 85.210,311.391 85.366 C 310.680 85.545,310.312 85.437,310.145 85.000 C 309.966 84.535,309.572 84.444,308.558 84.634 C 307.535 84.826,307.150 84.735,306.966 84.257 C 306.776 83.760,306.351 83.677,304.970 83.866 C 303.653 84.047,303.161 83.964,302.996 83.535 C 302.828 83.096,302.176 83.002,300.189 83.128 C 298.041 83.265,297.600 83.187,297.600 82.670 C 297.600 82.328,297.465 81.992,297.300 81.924 C 297.135 81.856,247.230 81.909,186.400 82.041 M296.248 106.582 C 296.425 107.041,296.998 107.114,298.980 106.929 C 300.649 106.773,301.581 106.846,301.767 107.147 C 301.921 107.396,302.667 107.600,303.424 107.600 C 304.181 107.600,304.800 107.780,304.800 108.000 C 304.800 108.220,305.340 108.400,306.000 108.400 C 306.660 108.400,307.200 108.580,307.200 108.800 C 307.200 109.020,307.560 109.200,308.000 109.200 C 308.440 109.200,308.800 109.380,308.800 109.600 C 308.800 109.820,309.160 110.000,309.600 110.000 C 310.040 110.000,310.400 110.180,310.400 110.400 C 310.400 110.620,310.720 110.800,311.112 110.800 C 311.503 110.800,312.083 111.160,312.400 111.600 C 312.717 112.040,313.211 112.400,313.498 112.400 C 314.207 112.400,320.048 118.399,319.772 118.845 C 319.652 119.040,319.743 119.200,319.976 119.200 C 320.209 119.200,320.400 119.520,320.400 119.912 C 320.400 120.303,320.760 120.883,321.200 121.200 C 321.670 121.539,322.000 122.235,322.000 122.888 C 322.000 123.500,322.200 124.000,322.445 124.000 C 322.713 124.000,322.820 124.480,322.715 125.200 C 322.594 126.019,322.707 126.400,323.069 126.400 C 323.392 126.400,323.600 126.870,323.600 127.600 C 323.600 128.260,323.801 128.800,324.047 128.800 C 324.346 128.800,324.439 129.651,324.328 131.389 C 324.209 133.262,324.307 134.032,324.682 134.176 C 325.097 134.335,325.200 138.371,325.200 154.387 L 325.200 174.400 210.700 174.400 L 96.200 174.400 96.200 140.200 L 96.200 106.000 196.113 106.000 C 283.151 106.000,296.054 106.075,296.248 106.582 M281.387 217.221 C 281.244 217.453,280.936 217.579,280.702 217.501 C 280.145 217.315,278.400 219.071,278.400 219.818 C 278.400 220.138,278.221 220.400,278.003 220.400 C 277.746 220.400,277.570 228.962,277.503 244.700 L 277.400 269.000 255.000 269.000 C 242.680 269.000,232.508 269.121,232.396 269.268 C 232.284 269.415,231.932 269.595,231.614 269.668 C 230.748 269.866,229.200 271.477,229.200 272.182 C 229.200 272.522,229.020 272.800,228.800 272.800 C 228.549 272.800,228.400 275.380,228.400 279.739 C 228.400 288.037,228.676 288.901,231.895 290.700 C 232.581 291.083,238.015 291.200,255.201 291.200 L 277.612 291.200 277.506 315.400 C 277.422 334.550,277.504 339.600,277.900 339.600 C 278.175 339.600,278.400 339.929,278.400 340.330 C 278.400 341.078,279.501 342.209,281.095 343.100 C 282.215 343.726,296.000 343.818,296.000 343.200 C 296.000 342.980,296.283 342.800,296.629 342.800 C 297.455 342.800,298.519 341.717,298.200 341.200 C 298.062 340.977,298.219 340.691,298.549 340.564 C 298.879 340.437,299.052 340.080,298.933 339.770 C 298.814 339.460,299.008 339.095,299.365 338.958 C 299.951 338.733,300.010 336.495,299.994 315.055 L 299.975 291.400 322.587 291.297 C 337.201 291.230,345.200 291.053,345.200 290.797 C 345.200 290.579,345.478 290.400,345.818 290.400 C 346.158 290.400,346.878 289.958,347.418 289.418 C 347.958 288.878,348.400 288.158,348.400 287.818 C 348.400 287.478,348.580 287.200,348.800 287.200 C 349.052 287.200,349.200 284.533,349.200 280.000 C 349.200 275.467,349.052 272.800,348.800 272.800 C 348.580 272.800,348.400 272.511,348.400 272.158 C 348.400 271.484,346.446 269.725,345.897 269.904 C 345.721 269.961,345.491 269.781,345.385 269.504 C 345.232 269.105,340.544 269.024,322.932 269.116 C 310.628 269.180,300.516 269.076,300.323 268.883 C 300.132 268.692,299.983 258.037,299.994 245.206 C 300.011 223.955,299.953 221.811,299.344 221.138 C 298.977 220.732,298.822 220.400,299.000 220.400 C 299.178 220.400,299.039 220.085,298.690 219.700 C 298.342 219.315,298.021 218.820,297.978 218.600 C 297.771 217.561,297.452 217.171,296.961 217.360 C 296.667 217.473,296.319 217.393,296.189 217.183 C 295.855 216.642,281.722 216.679,281.387 217.221 " stroke="none" fill="#048c84" fill-rule="evenodd"></path><path id="path1" d="M70.800 81.365 C 70.800 81.855,86.396 81.901,184.049 81.703 C 291.006 81.486,297.319 81.512,297.684 82.164 C 297.993 82.717,298.546 82.834,300.467 82.756 C 302.113 82.689,302.968 82.824,303.192 83.187 C 303.417 83.551,304.032 83.647,305.161 83.496 C 306.396 83.330,306.889 83.430,307.151 83.898 C 307.405 84.352,307.841 84.452,308.765 84.267 C 309.707 84.079,310.092 84.173,310.269 84.637 C 310.429 85.053,310.808 85.184,311.413 85.033 C 312.023 84.879,312.396 85.013,312.562 85.444 C 312.701 85.808,313.063 85.985,313.403 85.854 C 313.732 85.728,314.000 85.791,314.000 85.994 C 314.000 86.535,316.685 87.718,317.196 87.403 C 317.436 87.254,317.987 87.584,318.421 88.136 C 318.855 88.687,319.745 89.256,320.400 89.400 C 321.055 89.544,321.694 89.828,321.819 90.031 C 321.945 90.234,322.353 90.400,322.727 90.400 C 323.101 90.400,323.632 90.760,323.907 91.200 C 324.182 91.640,324.676 92.000,325.004 92.000 C 325.333 92.000,326.253 92.720,327.048 93.600 C 327.843 94.480,328.693 95.200,328.937 95.200 C 329.538 95.200,335.200 100.856,335.200 101.456 C 335.200 101.718,335.920 102.615,336.800 103.449 C 337.680 104.283,338.400 105.170,338.400 105.420 C 338.400 105.671,338.760 106.202,339.200 106.600 C 339.640 106.998,340.000 107.565,340.000 107.859 C 340.000 108.153,340.360 108.618,340.800 108.893 C 341.240 109.168,341.600 109.709,341.600 110.096 C 341.600 110.483,341.780 110.800,342.000 110.800 C 342.220 110.800,342.400 111.160,342.400 111.600 C 342.400 112.040,342.580 112.400,342.800 112.400 C 343.020 112.400,343.200 112.760,343.200 113.200 C 343.200 113.640,343.380 114.000,343.600 114.000 C 343.820 114.000,344.000 114.360,344.000 114.800 C 344.000 115.240,344.180 115.600,344.400 115.600 C 344.620 115.600,344.800 115.960,344.800 116.400 C 344.800 116.840,344.980 117.200,345.200 117.200 C 345.420 117.200,345.600 117.740,345.600 118.400 C 345.600 119.060,345.800 119.600,346.043 119.600 C 346.318 119.600,346.390 119.985,346.234 120.609 C 346.052 121.332,346.163 121.688,346.624 121.865 C 347.110 122.051,347.208 122.431,347.025 123.409 C 346.840 124.394,346.939 124.768,347.434 124.958 C 347.942 125.153,348.029 125.519,347.826 126.604 C 347.614 127.733,347.688 128.000,348.214 128.000 C 348.775 128.000,348.826 128.352,348.586 130.595 C 348.352 132.782,348.410 133.229,348.954 133.438 C 349.737 133.738,349.972 218.800,349.190 218.800 C 348.747 218.800,347.830 220.727,347.938 221.432 C 347.974 221.670,346.898 222.435,345.546 223.132 L 343.088 224.400 335.944 224.400 C 331.448 224.400,328.800 224.252,328.800 224.000 C 328.800 223.780,328.517 223.600,328.171 223.600 C 327.363 223.600,326.400 222.637,326.400 221.829 C 326.400 221.483,326.220 221.200,326.000 221.200 C 325.780 221.200,325.600 220.840,325.600 220.400 C 325.600 219.960,325.420 219.600,325.200 219.600 C 324.943 219.600,324.800 215.833,324.800 209.100 L 324.800 198.600 210.603 198.600 L 96.407 198.600 96.303 243.600 C 96.218 280.820,96.293 288.681,96.736 289.071 C 97.056 289.351,97.166 289.876,97.009 290.373 C 96.832 290.928,96.945 291.281,97.347 291.435 C 97.678 291.562,97.861 291.898,97.752 292.181 C 97.643 292.465,97.831 292.803,98.170 292.933 C 98.509 293.063,98.689 293.423,98.570 293.733 C 98.451 294.043,98.631 294.403,98.970 294.533 C 99.326 294.670,99.487 295.029,99.350 295.385 C 99.221 295.723,99.314 296.000,99.557 296.000 C 99.801 296.000,100.000 296.360,100.000 296.800 C 100.000 297.240,100.180 297.600,100.400 297.600 C 100.620 297.600,100.800 297.917,100.800 298.304 C 100.800 298.691,101.160 299.232,101.600 299.507 C 102.040 299.782,102.400 300.322,102.400 300.707 C 102.400 301.092,102.760 301.632,103.200 301.907 C 103.640 302.182,104.000 302.687,104.000 303.029 C 104.000 303.372,104.540 304.106,105.200 304.661 C 105.860 305.217,106.400 305.885,106.400 306.147 C 106.400 306.728,111.256 311.600,111.836 311.600 C 112.064 311.600,112.768 312.140,113.400 312.800 C 114.032 313.460,114.784 314.000,115.071 314.000 C 115.358 314.000,115.818 314.360,116.093 314.800 C 116.368 315.240,116.909 315.600,117.296 315.600 C 117.683 315.600,118.000 315.780,118.000 316.000 C 118.000 316.220,118.360 316.400,118.800 316.400 C 119.240 316.400,119.600 316.580,119.600 316.800 C 119.600 317.020,119.960 317.200,120.400 317.200 C 120.840 317.200,121.200 317.401,121.200 317.647 C 121.200 317.909,121.618 318.013,122.210 317.900 C 122.857 317.777,123.342 317.925,123.560 318.314 C 123.805 318.751,124.252 318.850,125.165 318.667 C 126.001 318.500,126.495 318.581,126.620 318.907 C 126.768 319.295,137.985 319.377,179.283 319.290 C 226.610 319.191,231.791 319.241,232.108 319.807 C 232.321 320.188,232.749 320.343,233.193 320.202 C 233.718 320.036,234.447 320.515,235.754 321.885 L 237.581 323.800 237.591 331.900 C 237.597 337.040,237.454 340.000,237.200 340.000 C 236.980 340.000,236.800 340.278,236.800 340.618 C 236.800 341.418,235.018 343.200,234.218 343.200 C 233.878 343.200,233.600 343.335,233.600 343.500 C 233.600 343.665,207.590 343.800,175.800 343.800 C 144.010 343.800,118.000 343.665,118.000 343.500 C 118.000 343.335,117.100 343.200,116.000 343.200 C 114.900 343.200,114.000 343.020,114.000 342.800 C 114.000 342.580,113.561 342.400,113.024 342.400 C 112.487 342.400,111.936 342.220,111.800 342.000 C 111.664 341.780,110.843 341.600,109.976 341.600 C 109.109 341.600,108.399 341.465,108.397 341.300 C 108.393 340.961,106.474 340.000,105.800 340.000 C 105.126 340.000,103.207 339.039,103.203 338.700 C 103.201 338.535,102.840 338.400,102.400 338.400 C 101.960 338.400,101.600 338.220,101.600 338.000 C 101.600 337.780,101.280 337.600,100.888 337.600 C 100.497 337.600,99.917 337.240,99.600 336.800 C 99.283 336.360,98.743 336.000,98.400 336.000 C 98.057 336.000,97.517 335.640,97.200 335.200 C 96.883 334.760,96.369 334.400,96.059 334.400 C 95.748 334.400,95.176 334.034,94.788 333.586 C 94.400 333.139,93.929 332.812,93.741 332.859 C 93.301 332.971,83.600 323.288,83.600 322.737 C 83.600 322.508,83.060 321.817,82.400 321.200 C 81.740 320.583,81.200 319.831,81.200 319.528 C 81.200 319.225,80.840 318.717,80.400 318.400 C 79.960 318.083,79.600 317.503,79.600 317.112 C 79.600 316.720,79.420 316.400,79.200 316.400 C 78.980 316.400,78.800 316.040,78.800 315.600 C 78.800 315.160,78.620 314.800,78.400 314.800 C 78.180 314.800,78.000 314.440,78.000 314.000 C 78.000 313.560,77.820 313.200,77.600 313.200 C 77.380 313.200,77.200 312.840,77.200 312.400 C 77.200 311.960,77.065 311.599,76.900 311.597 C 76.561 311.593,75.600 309.674,75.600 309.000 C 75.600 308.326,74.639 306.407,74.300 306.403 C 74.135 306.401,74.000 305.860,74.000 305.200 C 74.000 304.540,73.820 304.000,73.600 304.000 C 73.380 304.000,73.200 303.280,73.200 302.400 C 73.200 301.472,73.009 300.800,72.746 300.800 C 72.437 300.800,72.371 300.219,72.540 298.985 C 72.736 297.556,72.657 297.120,72.169 296.933 C 71.636 296.728,71.588 296.057,71.829 292.147 C 72.079 288.090,72.038 287.600,71.454 287.600 C 70.885 287.600,70.800 288.223,70.800 292.400 C 70.800 295.333,70.956 297.200,71.200 297.200 C 71.420 297.200,71.600 298.100,71.600 299.200 C 71.600 300.300,71.780 301.200,72.000 301.200 C 72.220 301.200,72.400 301.920,72.400 302.800 C 72.400 303.680,72.580 304.400,72.800 304.400 C 73.020 304.400,73.200 304.940,73.200 305.600 C 73.200 306.260,73.380 306.800,73.600 306.800 C 73.820 306.800,74.000 307.250,74.000 307.800 C 74.000 308.350,74.180 308.800,74.400 308.800 C 74.620 308.800,74.800 309.239,74.800 309.776 C 74.800 310.313,74.980 310.864,75.200 311.000 C 75.420 311.136,75.600 311.597,75.600 312.024 C 75.600 312.451,75.780 312.800,76.000 312.800 C 76.220 312.800,76.400 313.160,76.400 313.600 C 76.400 314.040,76.580 314.400,76.800 314.400 C 77.020 314.400,77.200 314.718,77.200 315.107 C 77.200 315.496,77.650 316.477,78.200 317.286 C 78.750 318.095,79.200 318.913,79.200 319.103 C 79.200 319.294,79.533 319.806,79.939 320.243 C 80.346 320.679,80.751 321.226,80.839 321.457 C 81.357 322.814,90.819 332.800,91.587 332.800 C 91.794 332.800,92.377 333.213,92.882 333.718 C 94.060 334.895,98.625 338.000,99.178 338.000 C 99.410 338.000,99.600 338.180,99.600 338.400 C 99.600 338.620,99.960 338.800,100.400 338.800 C 100.840 338.800,101.200 338.980,101.200 339.200 C 101.200 339.420,101.560 339.600,102.000 339.600 C 102.440 339.600,102.800 339.780,102.800 340.000 C 102.800 340.220,103.160 340.400,103.600 340.400 C 104.040 340.400,104.400 340.574,104.400 340.786 C 104.400 340.999,105.300 341.292,106.400 341.438 C 107.500 341.584,108.400 341.860,108.400 342.052 C 108.400 342.243,108.839 342.400,109.376 342.400 C 109.913 342.400,110.464 342.580,110.600 342.800 C 110.736 343.020,111.467 343.200,112.224 343.200 C 112.981 343.200,113.600 343.380,113.600 343.600 C 113.600 343.820,114.500 344.000,115.600 344.000 C 116.700 344.000,117.600 344.180,117.600 344.400 C 117.600 345.290,234.057 344.894,235.200 344.000 C 235.750 343.570,236.403 343.214,236.651 343.209 C 236.900 343.204,237.327 342.660,237.600 342.000 C 237.873 341.340,238.255 340.800,238.449 340.800 C 238.642 340.800,238.800 336.785,238.800 331.878 L 238.800 322.956 237.446 321.478 C 236.701 320.665,235.801 320.000,235.446 320.000 C 235.091 320.000,234.800 319.820,234.800 319.600 C 234.800 319.380,234.260 319.200,233.600 319.200 C 232.940 319.200,232.400 319.020,232.400 318.800 C 232.400 318.535,214.675 318.400,180.024 318.400 C 145.537 318.400,127.563 318.263,127.400 318.000 C 127.264 317.780,126.533 317.600,125.776 317.600 C 125.019 317.600,124.400 317.420,124.400 317.200 C 124.400 316.980,124.038 316.800,123.595 316.800 C 123.152 316.800,122.387 316.592,121.895 316.338 C 121.403 316.083,120.640 315.692,120.200 315.468 C 117.454 314.069,116.175 313.373,116.000 313.181 C 115.890 313.060,115.170 312.525,114.400 311.992 C 112.391 310.600,112.137 310.385,110.277 308.508 C 107.747 305.956,106.945 305.019,106.385 303.962 C 106.104 303.433,105.586 302.730,105.234 302.400 C 104.883 302.070,104.340 301.305,104.030 300.700 C 103.719 300.095,103.315 299.600,103.132 299.600 C 102.950 299.600,102.800 299.240,102.800 298.800 C 102.800 298.360,102.641 298.000,102.447 298.000 C 102.252 298.000,101.990 297.685,101.864 297.300 C 101.738 296.915,101.177 295.830,100.618 294.889 C 100.058 293.948,99.600 292.913,99.600 292.589 C 99.600 292.265,99.420 292.000,99.200 292.000 C 98.980 292.000,98.800 291.640,98.800 291.200 C 98.800 290.760,98.620 290.400,98.400 290.400 C 98.180 290.400,98.000 289.961,98.000 289.424 C 98.000 288.887,97.820 288.336,97.600 288.200 C 97.337 288.038,97.200 272.796,97.200 243.776 L 97.200 199.600 210.600 199.600 L 324.000 199.600 324.000 209.800 C 324.000 216.333,324.144 220.000,324.400 220.000 C 324.620 220.000,324.800 220.428,324.800 220.952 C 324.800 221.521,325.443 222.567,326.400 223.552 L 327.999 225.200 336.174 225.200 C 340.669 225.200,344.778 225.037,345.303 224.837 C 346.950 224.211,349.600 221.371,349.600 220.231 C 349.600 219.664,349.780 219.200,350.000 219.200 C 350.264 219.200,350.400 204.600,350.400 176.200 C 350.400 147.800,350.264 133.200,350.000 133.200 C 349.775 133.200,349.600 132.075,349.600 130.624 C 349.600 129.207,349.420 127.936,349.200 127.800 C 348.980 127.664,348.800 126.753,348.800 125.776 C 348.800 124.799,348.620 124.000,348.400 124.000 C 348.180 124.000,348.000 123.471,348.000 122.824 C 348.000 122.177,347.820 121.536,347.600 121.400 C 347.380 121.264,347.200 120.724,347.200 120.200 C 347.200 119.676,347.020 119.136,346.800 119.000 C 346.580 118.864,346.400 118.313,346.400 117.776 C 346.400 117.239,346.220 116.800,346.000 116.800 C 345.780 116.800,345.600 116.528,345.600 116.195 C 345.600 115.862,345.432 115.277,345.226 114.895 C 345.021 114.513,344.617 113.615,344.329 112.900 C 344.040 112.185,343.669 111.600,343.502 111.600 C 343.336 111.600,343.200 111.240,343.200 110.800 C 343.200 110.360,343.049 110.000,342.865 110.000 C 342.681 110.000,342.042 109.034,341.445 107.853 C 340.847 106.672,340.008 105.330,339.579 104.870 C 339.151 104.410,338.800 103.875,338.800 103.680 C 338.800 103.486,338.035 102.507,337.100 101.505 C 336.165 100.503,334.757 98.989,333.970 98.141 C 333.184 97.294,331.775 95.970,330.840 95.200 C 329.905 94.430,328.712 93.395,328.188 92.900 C 327.665 92.405,326.998 92.000,326.706 92.000 C 326.415 92.000,325.917 91.640,325.600 91.200 C 325.283 90.760,324.793 90.400,324.512 90.400 C 324.230 90.400,324.000 90.220,324.000 90.000 C 324.000 89.780,323.730 89.600,323.400 89.600 C 323.070 89.600,322.800 89.420,322.800 89.200 C 322.800 88.980,322.530 88.800,322.200 88.800 C 321.870 88.800,321.600 88.620,321.600 88.400 C 321.600 88.180,321.240 88.000,320.800 88.000 C 320.360 88.000,320.000 87.820,320.000 87.600 C 320.000 87.380,319.640 87.200,319.200 87.200 C 318.760 87.200,318.400 87.020,318.400 86.800 C 318.400 86.580,318.040 86.400,317.600 86.400 C 317.160 86.400,316.800 86.220,316.800 86.000 C 316.800 85.780,316.451 85.600,316.024 85.600 C 315.597 85.600,315.136 85.420,315.000 85.200 C 314.864 84.980,314.313 84.800,313.776 84.800 C 313.239 84.800,312.800 84.620,312.800 84.400 C 312.800 84.180,312.260 84.000,311.600 84.000 C 310.940 84.000,310.400 83.820,310.400 83.600 C 310.400 83.380,309.871 83.200,309.224 83.200 C 308.577 83.200,307.936 83.020,307.800 82.800 C 307.664 82.580,306.753 82.400,305.776 82.400 C 304.799 82.400,304.000 82.234,304.000 82.030 C 304.000 81.219,293.237 81.123,184.100 80.963 C 86.433 80.820,70.800 80.876,70.800 81.365 M96.400 140.200 L 96.400 174.000 210.600 174.000 L 324.800 174.000 324.800 154.200 C 324.800 140.416,324.670 134.400,324.372 134.400 C 324.102 134.400,323.981 133.417,324.042 131.723 C 324.106 129.953,323.980 128.993,323.669 128.890 C 323.411 128.804,323.200 128.298,323.200 127.767 C 323.200 127.235,323.020 126.800,322.800 126.800 C 322.580 126.800,322.400 126.260,322.400 125.600 C 322.400 124.940,322.197 124.400,321.950 124.400 C 321.668 124.400,321.586 123.972,321.729 123.256 C 321.915 122.326,321.775 122.015,320.977 121.588 C 320.438 121.299,320.026 120.869,320.062 120.631 C 320.261 119.334,314.047 112.076,313.192 112.605 C 313.026 112.707,312.672 112.527,312.404 112.205 C 312.136 111.882,310.901 111.126,309.659 110.524 C 308.416 109.922,307.340 109.288,307.267 109.115 C 307.193 108.942,306.608 108.800,305.967 108.800 C 305.325 108.800,304.800 108.620,304.800 108.400 C 304.800 108.180,304.080 108.000,303.200 108.000 C 302.292 108.000,301.600 107.808,301.600 107.555 C 301.600 107.255,300.684 107.161,298.800 107.268 C 296.706 107.386,296.000 107.297,296.000 106.913 C 296.000 106.497,277.130 106.400,196.200 106.400 L 96.400 106.400 96.400 140.200 M299.800 108.372 C 301.780 108.647,303.460 109.036,303.533 109.236 C 303.607 109.436,304.192 109.600,304.833 109.600 C 305.475 109.600,306.000 109.780,306.000 110.000 C 306.000 110.220,306.360 110.400,306.800 110.400 C 307.240 110.400,307.600 110.580,307.600 110.800 C 307.600 111.020,307.960 111.200,308.400 111.200 C 308.840 111.200,309.200 111.336,309.200 111.502 C 309.200 111.669,309.785 112.059,310.500 112.369 C 311.908 112.980,318.400 119.209,318.400 119.949 C 318.400 120.197,318.580 120.400,318.800 120.400 C 319.020 120.400,319.200 120.670,319.200 121.000 C 319.200 121.330,319.335 121.601,319.500 121.603 C 319.859 121.607,320.800 123.544,320.800 124.280 C 320.800 124.566,320.980 124.800,321.200 124.800 C 321.420 124.800,321.600 125.250,321.600 125.800 C 321.600 126.350,321.780 126.800,322.000 126.800 C 322.220 126.800,322.400 127.419,322.400 128.176 C 322.400 128.933,322.580 129.664,322.800 129.800 C 323.020 129.936,323.200 131.016,323.200 132.200 C 323.200 133.384,323.380 134.464,323.600 134.600 C 323.858 134.759,324.000 141.671,324.000 154.024 L 324.000 173.200 210.600 173.200 L 97.200 173.200 97.200 140.398 L 97.200 107.597 196.700 107.735 C 273.470 107.841,297.022 107.987,299.800 108.372 M278.849 216.753 C 277.926 217.623,277.200 218.679,277.200 219.153 C 277.200 219.619,277.020 220.000,276.800 220.000 C 276.538 220.000,276.400 228.200,276.400 243.800 L 276.400 267.600 253.995 267.600 C 230.674 267.600,230.698 267.598,229.204 269.281 C 227.067 271.689,227.154 271.184,227.281 280.475 L 227.400 289.149 228.575 290.375 C 229.221 291.049,229.986 291.600,230.275 291.600 C 230.564 291.600,230.800 291.780,230.800 292.000 C 230.800 292.262,238.667 292.400,253.600 292.400 L 276.400 292.400 276.400 316.400 C 276.400 329.600,276.544 340.400,276.720 340.400 C 276.895 340.400,277.267 341.030,277.546 341.800 C 277.824 342.570,278.228 343.200,278.443 343.200 C 278.658 343.200,279.220 343.560,279.692 344.000 C 280.492 344.746,281.104 344.800,288.686 344.800 L 296.821 344.800 298.511 343.073 C 301.382 340.138,301.200 341.968,301.200 316.005 L 301.200 292.400 323.800 292.400 C 336.520 292.400,346.400 292.246,346.400 292.049 C 346.400 291.855,346.940 291.473,347.600 291.200 C 348.260 290.927,348.800 290.455,348.800 290.151 C 348.800 289.848,348.980 289.600,349.200 289.600 C 349.420 289.600,349.600 289.240,349.600 288.800 C 349.600 288.360,349.780 288.000,350.000 288.000 C 350.253 288.000,350.400 285.133,350.400 280.200 C 350.400 275.267,350.253 272.400,350.000 272.400 C 349.780 272.400,349.600 272.040,349.600 271.600 C 349.600 271.160,349.420 270.800,349.200 270.800 C 348.980 270.800,348.800 270.524,348.800 270.187 C 348.800 269.851,348.485 269.458,348.100 269.315 C 347.715 269.172,347.109 268.728,346.753 268.328 C 346.142 267.640,344.860 267.600,323.653 267.600 L 301.200 267.600 301.200 244.024 C 301.200 228.737,301.059 220.360,300.800 220.200 C 300.580 220.064,300.400 219.676,300.400 219.337 C 300.400 218.998,299.561 217.929,298.536 216.960 L 296.673 215.200 288.586 215.200 L 280.499 215.200 278.849 216.753 M296.217 216.827 C 296.362 217.062,296.706 217.168,296.982 217.062 C 297.495 216.865,298.582 217.884,298.623 218.600 C 298.665 219.331,299.575 221.200,299.890 221.200 C 300.061 221.200,300.150 231.910,300.088 245.000 L 299.976 268.800 322.564 268.800 C 337.947 268.800,345.236 268.934,345.413 269.221 C 345.556 269.453,345.865 269.578,346.099 269.500 C 346.728 269.291,348.940 271.451,348.622 271.965 C 348.472 272.207,348.586 272.496,348.875 272.607 C 349.658 272.908,349.641 287.600,348.857 287.600 C 348.524 287.600,348.409 287.847,348.560 288.240 C 348.811 288.893,347.597 290.093,345.667 291.100 C 344.934 291.483,339.459 291.600,322.348 291.600 L 299.988 291.600 300.006 315.296 C 300.019 331.231,299.890 339.037,299.612 339.129 C 299.386 339.205,299.200 339.612,299.200 340.033 C 299.200 340.455,299.001 340.800,298.757 340.800 C 298.514 340.800,298.412 341.053,298.530 341.362 C 298.788 342.035,297.608 343.200,296.669 343.200 C 296.301 343.200,296.000 343.380,296.000 343.600 C 296.000 343.852,293.267 344.000,288.600 344.000 C 283.933 344.000,281.200 343.852,281.200 343.600 C 281.200 343.380,280.922 343.200,280.582 343.200 C 279.782 343.200,278.000 341.418,278.000 340.618 C 278.000 340.278,277.820 340.000,277.600 340.000 C 277.338 340.000,277.200 331.667,277.200 315.800 L 277.200 291.600 254.600 291.600 C 239.800 291.600,232.000 291.462,232.000 291.200 C 232.000 290.980,231.722 290.800,231.382 290.800 C 230.582 290.800,228.800 289.018,228.800 288.218 C 228.800 287.878,228.620 287.600,228.400 287.600 C 228.148 287.600,228.000 284.867,228.000 280.200 C 228.000 275.533,228.148 272.800,228.400 272.800 C 228.620 272.800,228.800 272.472,228.800 272.072 C 228.800 271.234,230.520 269.600,231.403 269.600 C 231.731 269.600,232.000 269.420,232.000 269.200 C 232.000 268.938,239.800 268.800,254.600 268.800 L 277.200 268.800 277.200 244.600 C 277.200 228.733,277.338 220.400,277.600 220.400 C 277.820 220.400,278.000 220.122,278.000 219.782 C 278.000 219.442,278.442 218.722,278.982 218.182 C 279.522 217.642,280.242 217.200,280.582 217.200 C 280.922 217.200,281.200 217.020,281.200 216.800 C 281.200 216.233,295.866 216.260,296.217 216.827 " stroke="none" fill="#040404" fill-rule="evenodd"></path><path id="path2" d="M170.868 81.900 C 193.895 81.957,231.695 81.957,254.868 81.900 C 278.041 81.843,259.200 81.796,213.000 81.796 C 166.800 81.796,147.841 81.843,170.868 81.900 M78.100 82.299 C 82.225 82.364,88.975 82.364,93.100 82.299 C 97.225 82.234,93.850 82.181,85.600 82.181 C 77.350 82.181,73.975 82.234,78.100 82.299 M297.600 82.889 C 297.600 83.060,298.635 83.179,299.900 83.154 C 302.341 83.104,302.102 82.928,299.300 82.711 C 298.365 82.638,297.600 82.719,297.600 82.889 M302.792 83.100 C 303.122 83.780,303.542 83.985,304.514 83.940 L 305.800 83.880 304.619 83.706 C 303.969 83.610,303.194 83.232,302.897 82.866 C 302.424 82.284,302.411 82.314,302.792 83.100 M306.748 84.036 C 307.199 84.520,307.837 84.793,308.264 84.683 C 308.889 84.521,308.871 84.486,308.143 84.446 C 307.671 84.421,307.182 84.130,307.055 83.800 C 306.929 83.470,306.632 83.200,306.397 83.200 C 306.161 83.200,306.319 83.576,306.748 84.036 M309.893 84.800 C 310.270 85.240,310.716 85.600,310.885 85.600 C 311.054 85.600,310.884 85.240,310.507 84.800 C 310.130 84.360,309.684 84.000,309.515 84.000 C 309.346 84.000,309.516 84.360,309.893 84.800 M317.881 88.187 C 318.277 88.731,318.743 89.181,318.919 89.187 C 319.094 89.194,318.914 88.756,318.519 88.213 C 318.123 87.669,317.657 87.219,317.481 87.213 C 317.306 87.206,317.486 87.644,317.881 88.187 M320.000 89.637 C 320.000 89.837,320.360 90.000,320.800 90.000 C 321.240 90.000,321.600 90.180,321.600 90.400 C 321.600 90.620,321.920 90.800,322.312 90.800 C 322.703 90.800,323.283 91.160,323.600 91.600 C 323.917 92.040,324.421 92.400,324.720 92.400 C 325.018 92.400,325.954 93.120,326.800 94.000 C 327.646 94.880,328.545 95.600,328.799 95.600 C 329.415 95.600,334.800 100.963,334.800 101.576 C 334.800 101.841,335.070 102.327,335.400 102.657 C 336.130 103.387,336.169 103.094,335.503 101.895 C 334.782 100.599,329.504 95.200,328.957 95.200 C 328.702 95.200,327.843 94.480,327.048 93.600 C 326.253 92.720,325.333 92.000,325.004 92.000 C 324.676 92.000,324.182 91.640,323.907 91.200 C 323.632 90.760,323.101 90.400,322.727 90.400 C 322.353 90.400,321.949 90.242,321.830 90.048 C 321.519 89.545,320.000 89.204,320.000 89.637 M336.400 103.434 C 336.400 103.639,336.760 104.032,337.200 104.307 C 337.640 104.582,338.000 105.126,338.000 105.515 C 338.000 105.905,338.360 106.483,338.800 106.800 C 339.240 107.117,339.600 107.657,339.600 108.000 C 339.600 108.343,339.960 108.883,340.400 109.200 C 340.840 109.517,341.200 110.097,341.200 110.488 C 341.200 110.880,341.380 111.200,341.600 111.200 C 341.820 111.200,342.000 111.560,342.000 112.000 C 342.000 112.440,342.180 112.800,342.400 112.800 C 342.620 112.800,342.800 113.145,342.800 113.567 C 342.800 113.988,342.935 114.393,343.100 114.467 C 343.558 114.670,345.198 117.987,345.213 118.738 C 345.231 119.696,346.400 121.211,346.400 120.276 C 346.400 119.904,346.220 119.600,346.000 119.600 C 345.780 119.600,345.600 119.060,345.600 118.400 C 345.600 117.740,345.420 117.200,345.200 117.200 C 344.980 117.200,344.800 116.840,344.800 116.400 C 344.800 115.960,344.620 115.600,344.400 115.600 C 344.180 115.600,344.000 115.240,344.000 114.800 C 344.000 114.360,343.820 114.000,343.600 114.000 C 343.380 114.000,343.200 113.640,343.200 113.200 C 343.200 112.760,343.020 112.400,342.800 112.400 C 342.580 112.400,342.400 112.040,342.400 111.600 C 342.400 111.160,342.220 110.800,342.000 110.800 C 341.780 110.800,341.600 110.483,341.600 110.096 C 341.600 109.709,341.240 109.168,340.800 108.893 C 340.360 108.618,340.000 108.153,340.000 107.859 C 340.000 107.565,339.640 106.998,339.200 106.600 C 338.760 106.202,338.400 105.665,338.400 105.408 C 338.400 105.150,337.950 104.517,337.400 104.000 C 336.850 103.483,336.400 103.229,336.400 103.434 M96.032 106.700 C 96.050 107.118,96.144 107.199,96.265 106.900 C 96.598 106.075,296.000 106.175,296.000 107.000 C 296.000 107.330,296.186 107.600,296.414 107.600 C 296.695 107.600,296.690 107.342,296.400 106.800 C 295.770 105.622,95.978 105.523,96.032 106.700 M299.700 107.094 C 300.745 107.176,301.600 107.414,301.600 107.622 C 301.600 107.830,302.365 107.971,303.300 107.936 C 304.918 107.875,304.932 107.864,303.600 107.707 C 302.830 107.617,302.029 107.376,301.820 107.171 C 301.611 106.967,300.621 106.832,299.620 106.872 L 297.800 106.944 299.700 107.094 M305.300 108.676 C 305.685 108.776,306.315 108.776,306.700 108.676 C 307.085 108.575,306.770 108.493,306.000 108.493 C 305.230 108.493,304.915 108.575,305.300 108.676 M309.285 110.333 C 310.542 110.947,311.937 111.781,312.385 112.186 C 313.405 113.110,313.445 112.805,312.453 111.661 C 312.042 111.188,311.412 110.800,311.053 110.800 C 310.694 110.800,310.400 110.620,310.400 110.400 C 310.400 110.180,310.040 110.000,309.600 110.000 C 309.160 110.000,308.800 109.820,308.800 109.600 C 308.800 109.380,308.395 109.204,307.900 109.209 C 307.288 109.215,307.731 109.575,309.285 110.333 M314.000 112.692 C 314.000 113.101,318.333 117.425,318.495 117.177 C 318.559 117.079,317.573 115.955,316.305 114.678 C 315.037 113.401,314.000 112.507,314.000 112.692 M320.000 120.656 C 320.000 120.991,321.297 121.971,321.761 121.987 C 321.960 121.994,321.707 121.640,321.200 121.200 C 320.217 120.347,320.000 120.249,320.000 120.656 M321.646 123.500 C 321.621 123.995,321.767 124.400,321.972 124.400 C 322.177 124.400,322.422 124.805,322.518 125.300 C 322.666 126.072,322.699 126.043,322.746 125.100 C 322.775 124.495,322.633 124.000,322.429 124.000 C 322.225 124.000,321.976 123.685,321.876 123.300 C 321.738 122.773,321.681 122.823,321.646 123.500 M347.054 125.070 C 347.303 125.251,347.607 125.760,347.728 126.200 C 347.901 126.831,347.932 126.795,347.874 126.031 C 347.833 125.499,347.530 124.990,347.200 124.901 C 346.804 124.794,346.754 124.851,347.054 125.070 M322.660 126.706 C 322.912 126.868,323.203 127.450,323.305 128.000 C 323.463 128.847,323.499 128.801,323.546 127.700 C 323.587 126.706,323.435 126.401,322.900 126.406 C 322.450 126.410,322.364 126.517,322.660 126.706 M347.860 128.306 C 348.112 128.468,348.403 129.050,348.505 129.600 C 348.663 130.447,348.699 130.401,348.746 129.300 C 348.787 128.306,348.635 128.001,348.100 128.006 C 347.650 128.010,347.564 128.117,347.860 128.306 M324.114 131.400 C 324.117 132.500,324.195 132.903,324.287 132.295 C 324.379 131.686,324.377 130.786,324.282 130.295 C 324.187 129.803,324.111 130.300,324.114 131.400 M348.032 132.267 C 347.971 133.170,348.492 134.000,349.119 134.000 C 349.696 134.000,349.696 133.955,349.122 133.500 C 348.776 133.225,348.396 132.730,348.278 132.400 C 348.160 132.070,348.049 132.010,348.032 132.267 M324.390 134.263 C 324.662 134.398,324.800 141.133,324.800 154.233 L 324.800 174.000 210.633 174.000 C 119.674 174.000,96.426 173.898,96.265 173.500 C 96.144 173.201,96.050 173.282,96.032 173.700 C 96.002 174.365,101.712 174.400,210.604 174.400 L 325.207 174.400 325.104 154.333 C 325.022 138.456,324.894 134.245,324.490 134.163 C 324.210 134.106,324.165 134.151,324.390 134.263 M349.200 176.400 C 349.200 200.779,349.050 218.400,348.843 218.400 C 348.646 218.400,348.383 218.667,348.258 218.994 C 348.067 219.491,348.158 219.508,348.815 219.098 C 349.565 218.630,350.147 134.400,349.400 134.400 C 349.290 134.400,349.200 153.300,349.200 176.400 M324.799 208.519 L 324.999 219.000 325.107 208.827 C 325.166 203.232,325.076 198.516,324.907 198.346 C 324.738 198.177,324.690 202.755,324.799 208.519 M96.193 243.200 C 96.193 267.950,96.241 278.075,96.300 265.700 C 96.359 253.325,96.359 233.075,96.300 220.700 C 96.241 208.325,96.193 218.450,96.193 243.200 M153.668 198.700 C 184.835 198.757,235.955 198.757,267.268 198.700 C 298.580 198.643,273.080 198.597,210.600 198.597 C 148.120 198.597,122.500 198.643,153.668 198.700 M280.884 217.015 C 280.601 217.337,280.545 217.600,280.761 217.600 C 280.976 217.600,281.264 217.420,281.400 217.200 C 281.783 216.580,295.698 216.673,296.401 217.300 C 296.878 217.725,296.882 217.696,296.432 217.100 C 295.702 216.135,281.728 216.059,280.884 217.015 M325.100 219.465 C 325.375 219.576,325.600 220.012,325.600 220.433 C 325.600 220.855,325.780 221.200,326.000 221.200 C 326.220 221.200,326.400 221.483,326.400 221.829 C 326.400 222.174,326.657 222.714,326.971 223.029 C 327.286 223.343,327.826 223.600,328.171 223.600 C 328.517 223.600,328.800 223.780,328.800 224.000 C 328.800 224.252,331.448 224.400,335.944 224.400 L 343.088 224.400 345.544 223.133 C 346.895 222.437,348.000 221.689,348.000 221.471 C 348.000 221.254,347.671 221.374,347.269 221.738 C 346.866 222.102,346.236 222.400,345.869 222.400 C 345.501 222.400,345.200 222.580,345.200 222.800 C 345.200 223.020,344.840 223.200,344.400 223.200 C 343.960 223.200,343.600 223.380,343.600 223.600 C 343.600 223.852,340.933 224.000,336.400 224.000 C 331.867 224.000,329.200 223.852,329.200 223.600 C 329.200 223.380,328.876 223.200,328.480 223.200 C 328.084 223.200,327.544 222.984,327.280 222.720 C 327.016 222.456,326.800 221.916,326.800 221.520 C 326.800 221.124,326.641 220.800,326.447 220.800 C 326.252 220.800,325.999 220.440,325.884 220.000 C 325.769 219.560,325.433 219.214,325.137 219.232 C 324.733 219.255,324.724 219.313,325.100 219.465 M277.297 244.497 L 277.200 268.793 255.300 268.900 L 233.400 269.007 255.313 269.103 C 272.546 269.179,277.266 269.093,277.416 268.700 C 277.521 268.425,277.559 257.400,277.501 244.200 L 277.394 220.200 277.297 244.497 M299.396 221.243 C 299.833 221.770,300.238 222.275,300.296 222.367 C 300.353 222.458,300.400 222.277,300.400 221.963 C 300.400 221.649,299.995 221.144,299.500 220.840 L 298.600 220.287 299.396 221.243 M311.100 269.100 C 317.095 269.162,326.905 269.162,332.900 269.100 C 338.895 269.038,333.990 268.987,322.000 268.987 C 310.010 268.987,305.105 269.038,311.100 269.100 M346.400 269.570 C 346.400 269.734,346.940 270.349,347.600 270.937 C 348.260 271.525,348.800 271.865,348.800 271.692 C 348.800 271.519,348.260 270.904,347.600 270.325 C 346.940 269.746,346.400 269.406,346.400 269.570 M229.224 270.971 C 228.954 271.296,228.818 271.885,228.921 272.281 C 229.072 272.866,229.116 272.838,229.154 272.133 C 229.179 271.657,229.425 271.186,229.700 271.088 C 229.975 270.990,230.091 270.791,229.957 270.645 C 229.823 270.500,229.493 270.646,229.224 270.971 M228.090 280.100 C 228.032 284.893,228.144 287.600,228.400 287.600 C 228.620 287.600,228.800 287.878,228.800 288.218 C 228.800 289.018,230.582 290.800,231.382 290.800 C 231.722 290.800,232.000 290.980,232.000 291.200 C 232.000 291.462,239.799 291.600,254.597 291.600 L 277.194 291.600 277.300 315.500 L 277.406 339.400 277.503 315.300 L 277.600 291.200 255.195 291.200 C 238.014 291.200,232.581 291.083,231.895 290.700 C 228.733 288.933,228.436 288.017,228.296 279.600 L 228.180 272.600 228.090 280.100 M349.200 286.367 C 349.200 286.788,348.975 287.224,348.700 287.335 C 348.401 287.456,348.482 287.550,348.900 287.568 C 349.388 287.590,349.600 287.298,349.600 286.600 C 349.600 286.050,349.510 285.600,349.400 285.600 C 349.290 285.600,349.200 285.945,349.200 286.367 M347.461 289.376 C 346.897 289.939,346.158 290.400,345.818 290.400 C 345.478 290.400,345.200 290.580,345.200 290.800 C 345.200 291.062,337.408 291.200,322.624 291.200 C 310.207 291.200,299.964 291.335,299.862 291.500 C 299.469 292.134,344.499 291.641,345.800 290.997 C 347.311 290.249,348.982 288.848,348.699 288.566 C 348.581 288.448,348.024 288.812,347.461 289.376 M71.720 294.800 C 71.720 296.010,71.795 296.505,71.887 295.900 C 71.978 295.295,71.978 294.305,71.887 293.700 C 71.795 293.095,71.720 293.590,71.720 294.800 M100.287 298.413 C 100.404 298.860,100.837 299.406,101.250 299.627 C 101.662 299.848,102.000 300.372,102.000 300.791 C 102.000 301.211,102.338 301.792,102.752 302.082 C 103.166 302.371,103.595 302.967,103.706 303.404 C 103.888 304.125,103.912 304.116,103.954 303.303 C 103.980 302.802,103.647 302.187,103.200 301.907 C 102.760 301.632,102.400 301.092,102.400 300.707 C 102.400 300.322,102.040 299.782,101.600 299.507 C 101.160 299.232,100.800 298.691,100.800 298.304 C 100.800 297.917,100.637 297.600,100.437 297.600 C 100.238 297.600,100.171 297.966,100.287 298.413 M72.454 299.500 C 72.425 300.215,72.580 300.800,72.800 300.800 C 73.020 300.800,73.200 301.520,73.200 302.400 C 73.200 303.280,73.380 304.000,73.600 304.000 C 73.820 304.000,74.000 304.540,74.000 305.200 C 74.000 305.860,74.135 306.401,74.300 306.403 C 74.648 306.407,75.600 308.334,75.600 309.034 C 75.600 309.295,75.869 310.024,76.198 310.654 C 76.745 311.704,76.795 311.725,76.798 310.900 C 76.799 310.405,76.620 310.000,76.400 310.000 C 76.180 310.000,76.000 309.460,76.000 308.800 C 76.000 308.140,75.820 307.600,75.600 307.600 C 75.380 307.600,75.200 307.240,75.200 306.800 C 75.200 306.360,75.020 306.000,74.800 306.000 C 74.580 306.000,74.400 305.561,74.400 305.024 C 74.400 304.487,74.220 303.936,74.000 303.800 C 73.780 303.664,73.600 302.969,73.600 302.256 C 73.600 301.543,73.435 300.789,73.234 300.580 C 73.032 300.371,72.787 299.750,72.688 299.200 C 72.538 298.362,72.500 298.410,72.454 299.500 M104.400 304.242 C 104.400 304.452,104.760 304.883,105.200 305.200 C 105.640 305.517,106.000 306.010,106.000 306.296 C 106.000 306.998,111.040 312.000,111.748 312.000 C 112.057 312.000,112.735 312.538,113.255 313.196 C 113.775 313.854,114.515 314.394,114.900 314.396 C 115.285 314.398,115.600 314.580,115.600 314.800 C 115.600 315.020,115.802 315.200,116.049 315.200 C 116.359 315.200,116.344 315.015,116.000 314.600 C 115.726 314.270,115.288 314.000,115.026 314.000 C 114.764 314.000,114.032 313.460,113.400 312.800 C 112.768 312.140,112.054 311.600,111.814 311.600 C 111.257 311.600,106.400 306.719,106.400 306.159 C 106.400 305.928,105.950 305.317,105.400 304.800 C 104.850 304.283,104.400 304.032,104.400 304.242 M78.002 313.900 C 78.001 314.395,78.180 314.800,78.400 314.800 C 78.620 314.800,78.821 315.205,78.846 315.700 C 78.875 316.250,78.958 316.357,79.061 315.975 C 79.154 315.631,78.954 314.821,78.617 314.175 C 78.063 313.111,78.005 313.085,78.002 313.900 M119.000 317.018 C 120.540 317.796,122.103 318.355,122.474 318.261 C 122.845 318.166,123.244 318.339,123.362 318.644 C 123.479 318.950,123.773 319.200,124.016 319.200 C 124.259 319.200,124.145 318.888,123.763 318.506 C 123.382 318.125,122.649 317.867,122.135 317.935 C 121.621 318.002,121.200 317.864,121.200 317.629 C 121.200 317.393,120.840 317.200,120.400 317.200 C 119.960 317.200,119.600 317.020,119.600 316.800 C 119.600 316.580,119.240 316.400,118.800 316.400 C 118.360 316.400,118.000 316.220,118.000 316.000 C 118.000 315.780,117.595 315.601,117.100 315.601 C 116.523 315.602,117.206 316.111,119.000 317.018 M80.400 318.351 C 80.400 318.598,80.580 318.800,80.800 318.800 C 81.020 318.800,81.200 319.076,81.200 319.413 C 81.200 319.751,81.830 320.657,82.600 321.427 C 83.370 322.197,84.000 322.674,84.000 322.488 C 84.000 322.302,83.460 321.632,82.800 321.000 C 82.140 320.368,81.600 319.636,81.600 319.374 C 81.600 319.112,81.330 318.674,81.000 318.400 C 80.585 318.056,80.400 318.041,80.400 318.351 M126.354 319.243 C 126.787 319.707,127.379 319.991,127.670 319.875 C 128.041 319.727,128.002 319.654,127.543 319.632 C 127.181 319.614,126.782 319.330,126.655 319.000 C 126.529 318.670,126.232 318.400,125.997 318.400 C 125.761 318.400,125.922 318.779,126.354 319.243 M180.170 319.500 C 228.209 319.597,231.389 319.646,232.127 320.302 C 232.892 320.981,232.898 320.975,232.360 320.100 L 231.808 319.200 180.404 319.298 L 129.000 319.397 180.170 319.500 M235.219 321.981 L 237.200 323.962 237.200 331.586 C 237.200 339.258,237.103 339.879,235.621 341.719 C 235.027 342.456,233.220 343.405,231.800 343.726 C 231.303 343.839,231.493 343.925,232.300 343.954 C 233.015 343.979,233.600 343.820,233.600 343.600 C 233.600 343.380,233.878 343.200,234.218 343.200 C 235.018 343.200,236.800 341.418,236.800 340.618 C 236.800 340.278,236.980 340.000,237.200 340.000 C 237.454 340.000,237.597 337.040,237.591 331.900 L 237.581 323.800 235.769 321.900 C 234.772 320.855,233.794 320.000,233.597 320.000 C 233.400 320.000,234.130 320.891,235.219 321.981 M84.897 324.500 C 87.098 326.663,87.924 327.090,86.017 325.080 C 85.036 324.046,84.085 323.200,83.903 323.200 C 83.722 323.200,84.169 323.785,84.897 324.500 M89.200 328.600 C 89.946 329.370,90.647 330.000,90.757 330.000 C 90.867 330.000,90.346 329.370,89.600 328.600 C 88.854 327.830,88.153 327.200,88.043 327.200 C 87.933 327.200,88.454 327.830,89.200 328.600 M94.000 332.469 C 94.000 332.955,95.540 334.400,96.059 334.400 C 96.369 334.400,96.883 334.760,97.200 335.200 C 97.517 335.640,98.097 336.000,98.488 336.000 C 98.880 336.000,99.200 336.180,99.200 336.400 C 99.200 336.620,99.402 336.800,99.649 336.800 C 99.959 336.800,99.944 336.615,99.600 336.200 C 99.326 335.870,98.882 335.600,98.613 335.600 C 98.344 335.600,97.798 335.240,97.400 334.800 C 97.002 334.360,96.491 334.000,96.264 334.000 C 96.037 334.000,95.435 333.609,94.926 333.130 C 94.417 332.652,94.000 332.354,94.000 332.469 M101.343 337.800 C 101.673 338.130,102.271 338.399,102.671 338.398 C 103.192 338.396,103.073 338.224,102.254 337.798 C 100.807 337.043,100.586 337.043,101.343 337.800 M104.146 339.402 C 104.776 339.731,105.543 340.000,105.851 340.000 C 106.510 340.000,108.074 340.829,108.494 341.400 C 108.660 341.626,108.790 341.495,108.794 341.100 C 108.798 340.665,108.498 340.400,108.000 340.400 C 107.560 340.400,107.200 340.220,107.200 340.000 C 107.200 339.780,106.660 339.600,106.000 339.600 C 105.340 339.600,104.800 339.420,104.800 339.200 C 104.800 338.980,104.395 338.801,103.900 338.802 C 103.075 338.805,103.096 338.855,104.146 339.402 M277.500 339.865 C 277.775 339.976,278.000 340.330,278.000 340.652 C 278.000 341.425,279.798 343.200,280.582 343.200 C 280.922 343.200,281.200 343.380,281.200 343.600 C 281.200 343.856,283.907 343.968,288.700 343.910 L 296.200 343.820 289.200 343.711 C 284.776 343.641,281.832 343.424,281.200 343.119 C 279.640 342.366,278.400 341.131,278.400 340.330 C 278.400 339.889,278.123 339.613,277.700 339.632 C 277.282 339.650,277.201 339.744,277.500 339.865 M110.200 341.491 C 110.860 341.585,111.571 341.828,111.780 342.031 C 111.989 342.234,112.559 342.400,113.047 342.400 C 113.534 342.400,114.024 342.625,114.135 342.900 C 114.256 343.199,114.350 343.118,114.368 342.700 C 114.392 342.182,114.088 342.000,113.200 342.000 C 112.540 342.000,112.000 341.820,112.000 341.600 C 112.000 341.380,111.325 341.227,110.500 341.260 C 109.147 341.314,109.118 341.337,110.200 341.491 M297.900 342.157 C 297.594 342.463,296.996 342.802,296.572 342.910 C 295.860 343.092,295.865 343.111,296.638 343.154 C 297.099 343.179,297.802 342.840,298.200 342.400 C 299.015 341.500,298.762 341.295,297.900 342.157 M116.195 343.083 C 117.072 343.180,117.941 343.471,118.125 343.730 C 118.356 344.053,118.410 344.012,118.299 343.600 C 118.189 343.191,117.574 342.985,116.369 342.953 C 114.613 342.907,114.612 342.908,116.195 343.083 M120.512 343.895 C 121.564 343.977,123.184 343.976,124.112 343.892 C 125.040 343.808,124.180 343.741,122.200 343.742 C 120.220 343.743,119.460 343.812,120.512 343.895 " stroke="none" fill="#046888" fill-rule="evenodd"></path><path id="path3" d="M170.868 81.900 C 193.895 81.957,231.695 81.957,254.868 81.900 C 278.041 81.843,259.200 81.796,213.000 81.796 C 166.800 81.796,147.841 81.843,170.868 81.900 M78.100 82.299 C 82.225 82.364,88.975 82.364,93.100 82.299 C 97.225 82.234,93.850 82.181,85.600 82.181 C 77.350 82.181,73.975 82.234,78.100 82.299 M297.600 82.889 C 297.600 83.060,298.635 83.179,299.900 83.154 C 302.341 83.104,302.102 82.928,299.300 82.711 C 298.365 82.638,297.600 82.719,297.600 82.889 M302.792 83.100 C 303.122 83.780,303.542 83.985,304.514 83.940 L 305.800 83.880 304.619 83.706 C 303.969 83.610,303.194 83.232,302.897 82.866 C 302.424 82.284,302.411 82.314,302.792 83.100 M306.748 84.036 C 307.199 84.520,307.837 84.793,308.264 84.683 C 308.889 84.521,308.871 84.486,308.143 84.446 C 307.671 84.421,307.182 84.130,307.055 83.800 C 306.929 83.470,306.632 83.200,306.397 83.200 C 306.161 83.200,306.319 83.576,306.748 84.036 M309.893 84.800 C 310.270 85.240,310.716 85.600,310.885 85.600 C 311.054 85.600,310.884 85.240,310.507 84.800 C 310.130 84.360,309.684 84.000,309.515 84.000 C 309.346 84.000,309.516 84.360,309.893 84.800 M317.881 88.187 C 318.277 88.731,318.743 89.181,318.919 89.187 C 319.094 89.194,318.914 88.756,318.519 88.213 C 318.123 87.669,317.657 87.219,317.481 87.213 C 317.306 87.206,317.486 87.644,317.881 88.187 M320.000 89.637 C 320.000 89.837,320.360 90.000,320.800 90.000 C 321.240 90.000,321.600 90.180,321.600 90.400 C 321.600 90.620,321.920 90.800,322.312 90.800 C 322.703 90.800,323.283 91.160,323.600 91.600 C 323.917 92.040,324.421 92.400,324.720 92.400 C 325.018 92.400,325.954 93.120,326.800 94.000 C 327.646 94.880,328.545 95.600,328.799 95.600 C 329.415 95.600,334.800 100.963,334.800 101.576 C 334.800 101.841,335.070 102.327,335.400 102.657 C 336.130 103.387,336.169 103.094,335.503 101.895 C 334.782 100.599,329.504 95.200,328.957 95.200 C 328.702 95.200,327.843 94.480,327.048 93.600 C 326.253 92.720,325.333 92.000,325.004 92.000 C 324.676 92.000,324.182 91.640,323.907 91.200 C 323.632 90.760,323.101 90.400,322.727 90.400 C 322.353 90.400,321.949 90.242,321.830 90.048 C 321.519 89.545,320.000 89.204,320.000 89.637 M336.400 103.434 C 336.400 103.639,336.760 104.032,337.200 104.307 C 337.640 104.582,338.000 105.126,338.000 105.515 C 338.000 105.905,338.360 106.483,338.800 106.800 C 339.240 107.117,339.600 107.657,339.600 108.000 C 339.600 108.343,339.960 108.883,340.400 109.200 C 340.840 109.517,341.200 110.097,341.200 110.488 C 341.200 110.880,341.380 111.200,341.600 111.200 C 341.820 111.200,342.000 111.560,342.000 112.000 C 342.000 112.440,342.180 112.800,342.400 112.800 C 342.620 112.800,342.800 113.145,342.800 113.567 C 342.800 113.988,342.935 114.393,343.100 114.467 C 343.558 114.670,345.198 117.987,345.213 118.738 C 345.231 119.696,346.400 121.211,346.400 120.276 C 346.400 119.904,346.220 119.600,346.000 119.600 C 345.780 119.600,345.600 119.060,345.600 118.400 C 345.600 117.740,345.420 117.200,345.200 117.200 C 344.980 117.200,344.800 116.840,344.800 116.400 C 344.800 115.960,344.620 115.600,344.400 115.600 C 344.180 115.600,344.000 115.240,344.000 114.800 C 344.000 114.360,343.820 114.000,343.600 114.000 C 343.380 114.000,343.200 113.640,343.200 113.200 C 343.200 112.760,343.020 112.400,342.800 112.400 C 342.580 112.400,342.400 112.040,342.400 111.600 C 342.400 111.160,342.220 110.800,342.000 110.800 C 341.780 110.800,341.600 110.483,341.600 110.096 C 341.600 109.709,341.240 109.168,340.800 108.893 C 340.360 108.618,340.000 108.153,340.000 107.859 C 340.000 107.565,339.640 106.998,339.200 106.600 C 338.760 106.202,338.400 105.665,338.400 105.408 C 338.400 105.150,337.950 104.517,337.400 104.000 C 336.850 103.483,336.400 103.229,336.400 103.434 M96.032 106.700 C 96.050 107.118,96.144 107.199,96.265 106.900 C 96.598 106.075,296.000 106.175,296.000 107.000 C 296.000 107.330,296.186 107.600,296.414 107.600 C 296.695 107.600,296.690 107.342,296.400 106.800 C 295.770 105.622,95.978 105.523,96.032 106.700 M299.700 107.094 C 300.745 107.176,301.600 107.414,301.600 107.622 C 301.600 107.830,302.365 107.971,303.300 107.936 C 304.918 107.875,304.932 107.864,303.600 107.707 C 302.830 107.617,302.029 107.376,301.820 107.171 C 301.611 106.967,300.621 106.832,299.620 106.872 L 297.800 106.944 299.700 107.094 M305.300 108.676 C 305.685 108.776,306.315 108.776,306.700 108.676 C 307.085 108.575,306.770 108.493,306.000 108.493 C 305.230 108.493,304.915 108.575,305.300 108.676 M309.285 110.333 C 310.542 110.947,311.937 111.781,312.385 112.186 C 313.405 113.110,313.445 112.805,312.453 111.661 C 312.042 111.188,311.412 110.800,311.053 110.800 C 310.694 110.800,310.400 110.620,310.400 110.400 C 310.400 110.180,310.040 110.000,309.600 110.000 C 309.160 110.000,308.800 109.820,308.800 109.600 C 308.800 109.380,308.395 109.204,307.900 109.209 C 307.288 109.215,307.731 109.575,309.285 110.333 M314.000 112.692 C 314.000 113.101,318.333 117.425,318.495 117.177 C 318.559 117.079,317.573 115.955,316.305 114.678 C 315.037 113.401,314.000 112.507,314.000 112.692 M320.000 120.656 C 320.000 120.991,321.297 121.971,321.761 121.987 C 321.960 121.994,321.707 121.640,321.200 121.200 C 320.217 120.347,320.000 120.249,320.000 120.656 M321.646 123.500 C 321.621 123.995,321.767 124.400,321.972 124.400 C 322.177 124.400,322.422 124.805,322.518 125.300 C 322.666 126.072,322.699 126.043,322.746 125.100 C 322.775 124.495,322.633 124.000,322.429 124.000 C 322.225 124.000,321.976 123.685,321.876 123.300 C 321.738 122.773,321.681 122.823,321.646 123.500 M347.054 125.070 C 347.303 125.251,347.607 125.760,347.728 126.200 C 347.901 126.831,347.932 126.795,347.874 126.031 C 347.833 125.499,347.530 124.990,347.200 124.901 C 346.804 124.794,346.754 124.851,347.054 125.070 M322.660 126.706 C 322.912 126.868,323.203 127.450,323.305 128.000 C 323.463 128.847,323.499 128.801,323.546 127.700 C 323.587 126.706,323.435 126.401,322.900 126.406 C 322.450 126.410,322.364 126.517,322.660 126.706 M347.860 128.306 C 348.112 128.468,348.403 129.050,348.505 129.600 C 348.663 130.447,348.699 130.401,348.746 129.300 C 348.787 128.306,348.635 128.001,348.100 128.006 C 347.650 128.010,347.564 128.117,347.860 128.306 M324.114 131.400 C 324.117 132.500,324.195 132.903,324.287 132.295 C 324.379 131.686,324.377 130.786,324.282 130.295 C 324.187 129.803,324.111 130.300,324.114 131.400 M348.032 132.267 C 347.971 133.170,348.492 134.000,349.119 134.000 C 349.696 134.000,349.696 133.955,349.122 133.500 C 348.776 133.225,348.396 132.730,348.278 132.400 C 348.160 132.070,348.049 132.010,348.032 132.267 M324.390 134.263 C 324.662 134.398,324.800 141.133,324.800 154.233 L 324.800 174.000 210.633 174.000 C 119.674 174.000,96.426 173.898,96.265 173.500 C 96.144 173.201,96.050 173.282,96.032 173.700 C 96.002 174.365,101.712 174.400,210.604 174.400 L 325.207 174.400 325.104 154.333 C 325.022 138.456,324.894 134.245,324.490 134.163 C 324.210 134.106,324.165 134.151,324.390 134.263 M349.200 176.400 C 349.200 200.779,349.050 218.400,348.843 218.400 C 348.646 218.400,348.383 218.667,348.258 218.994 C 348.067 219.491,348.158 219.508,348.815 219.098 C 349.565 218.630,350.147 134.400,349.400 134.400 C 349.290 134.400,349.200 153.300,349.200 176.400 M324.799 208.519 L 324.999 219.000 325.107 208.827 C 325.166 203.232,325.076 198.516,324.907 198.346 C 324.738 198.177,324.690 202.755,324.799 208.519 M96.193 243.200 C 96.193 267.950,96.241 278.075,96.300 265.700 C 96.359 253.325,96.359 233.075,96.300 220.700 C 96.241 208.325,96.193 218.450,96.193 243.200 M153.668 198.700 C 184.835 198.757,235.955 198.757,267.268 198.700 C 298.580 198.643,273.080 198.597,210.600 198.597 C 148.120 198.597,122.500 198.643,153.668 198.700 M280.884 217.015 C 280.601 217.337,280.545 217.600,280.761 217.600 C 280.976 217.600,281.264 217.420,281.400 217.200 C 281.783 216.580,295.698 216.673,296.401 217.300 C 296.878 217.725,296.882 217.696,296.432 217.100 C 295.702 216.135,281.728 216.059,280.884 217.015 M325.100 219.465 C 325.375 219.576,325.600 220.012,325.600 220.433 C 325.600 220.855,325.780 221.200,326.000 221.200 C 326.220 221.200,326.400 221.483,326.400 221.829 C 326.400 222.174,326.657 222.714,326.971 223.029 C 327.286 223.343,327.826 223.600,328.171 223.600 C 328.517 223.600,328.800 223.780,328.800 224.000 C 328.800 224.252,331.448 224.400,335.944 224.400 L 343.088 224.400 345.544 223.133 C 346.895 222.437,348.000 221.689,348.000 221.471 C 348.000 221.254,347.671 221.374,347.269 221.738 C 346.866 222.102,346.236 222.400,345.869 222.400 C 345.501 222.400,345.200 222.580,345.200 222.800 C 345.200 223.020,344.840 223.200,344.400 223.200 C 343.960 223.200,343.600 223.380,343.600 223.600 C 343.600 223.852,340.933 224.000,336.400 224.000 C 331.867 224.000,329.200 223.852,329.200 223.600 C 329.200 223.380,328.876 223.200,328.480 223.200 C 328.084 223.200,327.544 222.984,327.280 222.720 C 327.016 222.456,326.800 221.916,326.800 221.520 C 326.800 221.124,326.641 220.800,326.447 220.800 C 326.252 220.800,325.999 220.440,325.884 220.000 C 325.769 219.560,325.433 219.214,325.137 219.232 C 324.733 219.255,324.724 219.313,325.100 219.465 M277.297 244.497 L 277.200 268.793 255.300 268.900 L 233.400 269.007 255.313 269.103 C 272.546 269.179,277.266 269.093,277.416 268.700 C 277.521 268.425,277.559 257.400,277.501 244.200 L 277.394 220.200 277.297 244.497 M299.396 221.243 C 299.833 221.770,300.238 222.275,300.296 222.367 C 300.353 222.458,300.400 222.277,300.400 221.963 C 300.400 221.649,299.995 221.144,299.500 220.840 L 298.600 220.287 299.396 221.243 M311.100 269.100 C 317.095 269.162,326.905 269.162,332.900 269.100 C 338.895 269.038,333.990 268.987,322.000 268.987 C 310.010 268.987,305.105 269.038,311.100 269.100 M346.400 269.570 C 346.400 269.734,346.940 270.349,347.600 270.937 C 348.260 271.525,348.800 271.865,348.800 271.692 C 348.800 271.519,348.260 270.904,347.600 270.325 C 346.940 269.746,346.400 269.406,346.400 269.570 M229.224 270.971 C 228.954 271.296,228.818 271.885,228.921 272.281 C 229.072 272.866,229.116 272.838,229.154 272.133 C 229.179 271.657,229.425 271.186,229.700 271.088 C 229.975 270.990,230.091 270.791,229.957 270.645 C 229.823 270.500,229.493 270.646,229.224 270.971 M228.090 280.100 C 228.032 284.893,228.144 287.600,228.400 287.600 C 228.620 287.600,228.800 287.878,228.800 288.218 C 228.800 289.018,230.582 290.800,231.382 290.800 C 231.722 290.800,232.000 290.980,232.000 291.200 C 232.000 291.462,239.799 291.600,254.597 291.600 L 277.194 291.600 277.300 315.500 L 277.406 339.400 277.503 315.300 L 277.600 291.200 255.195 291.200 C 238.014 291.200,232.581 291.083,231.895 290.700 C 228.733 288.933,228.436 288.017,228.296 279.600 L 228.180 272.600 228.090 280.100 M349.200 286.367 C 349.200 286.788,348.975 287.224,348.700 287.335 C 348.401 287.456,348.482 287.550,348.900 287.568 C 349.388 287.590,349.600 287.298,349.600 286.600 C 349.600 286.050,349.510 285.600,349.400 285.600 C 349.290 285.600,349.200 285.945,349.200 286.367 M347.461 289.376 C 346.897 289.939,346.158 290.400,345.818 290.400 C 345.478 290.400,345.200 290.580,345.200 290.800 C 345.200 291.062,337.408 291.200,322.624 291.200 C 310.207 291.200,299.964 291.335,299.862 291.500 C 299.469 292.134,344.499 291.641,345.800 290.997 C 347.311 290.249,348.982 288.848,348.699 288.566 C 348.581 288.448,348.024 288.812,347.461 289.376 M71.720 294.800 C 71.720 296.010,71.795 296.505,71.887 295.900 C 71.978 295.295,71.978 294.305,71.887 293.700 C 71.795 293.095,71.720 293.590,71.720 294.800 M100.287 298.413 C 100.404 298.860,100.837 299.406,101.250 299.627 C 101.662 299.848,102.000 300.372,102.000 300.791 C 102.000 301.211,102.338 301.792,102.752 302.082 C 103.166 302.371,103.595 302.967,103.706 303.404 C 103.888 304.125,103.912 304.116,103.954 303.303 C 103.980 302.802,103.647 302.187,103.200 301.907 C 102.760 301.632,102.400 301.092,102.400 300.707 C 102.400 300.322,102.040 299.782,101.600 299.507 C 101.160 299.232,100.800 298.691,100.800 298.304 C 100.800 297.917,100.637 297.600,100.437 297.600 C 100.238 297.600,100.171 297.966,100.287 298.413 M72.454 299.500 C 72.425 300.215,72.580 300.800,72.800 300.800 C 73.020 300.800,73.200 301.520,73.200 302.400 C 73.200 303.280,73.380 304.000,73.600 304.000 C 73.820 304.000,74.000 304.540,74.000 305.200 C 74.000 305.860,74.135 306.401,74.300 306.403 C 74.648 306.407,75.600 308.334,75.600 309.034 C 75.600 309.295,75.869 310.024,76.198 310.654 C 76.745 311.704,76.795 311.725,76.798 310.900 C 76.799 310.405,76.620 310.000,76.400 310.000 C 76.180 310.000,76.000 309.460,76.000 308.800 C 76.000 308.140,75.820 307.600,75.600 307.600 C 75.380 307.600,75.200 307.240,75.200 306.800 C 75.200 306.360,75.020 306.000,74.800 306.000 C 74.580 306.000,74.400 305.561,74.400 305.024 C 74.400 304.487,74.220 303.936,74.000 303.800 C 73.780 303.664,73.600 302.969,73.600 302.256 C 73.600 301.543,73.435 300.789,73.234 300.580 C 73.032 300.371,72.787 299.750,72.688 299.200 C 72.538 298.362,72.500 298.410,72.454 299.500 M104.400 304.242 C 104.400 304.452,104.760 304.883,105.200 305.200 C 105.640 305.517,106.000 306.010,106.000 306.296 C 106.000 306.998,111.040 312.000,111.748 312.000 C 112.057 312.000,112.735 312.538,113.255 313.196 C 113.775 313.854,114.515 314.394,114.900 314.396 C 115.285 314.398,115.600 314.580,115.600 314.800 C 115.600 315.020,115.802 315.200,116.049 315.200 C 116.359 315.200,116.344 315.015,116.000 314.600 C 115.726 314.270,115.288 314.000,115.026 314.000 C 114.764 314.000,114.032 313.460,113.400 312.800 C 112.768 312.140,112.054 311.600,111.814 311.600 C 111.257 311.600,106.400 306.719,106.400 306.159 C 106.400 305.928,105.950 305.317,105.400 304.800 C 104.850 304.283,104.400 304.032,104.400 304.242 M78.002 313.900 C 78.001 314.395,78.180 314.800,78.400 314.800 C 78.620 314.800,78.821 315.205,78.846 315.700 C 78.875 316.250,78.958 316.357,79.061 315.975 C 79.154 315.631,78.954 314.821,78.617 314.175 C 78.063 313.111,78.005 313.085,78.002 313.900 M119.000 317.018 C 120.540 317.796,122.103 318.355,122.474 318.261 C 122.845 318.166,123.244 318.339,123.362 318.644 C 123.479 318.950,123.773 319.200,124.016 319.200 C 124.259 319.200,124.145 318.888,123.763 318.506 C 123.382 318.125,122.649 317.867,122.135 317.935 C 121.621 318.002,121.200 317.864,121.200 317.629 C 121.200 317.393,120.840 317.200,120.400 317.200 C 119.960 317.200,119.600 317.020,119.600 316.800 C 119.600 316.580,119.240 316.400,118.800 316.400 C 118.360 316.400,118.000 316.220,118.000 316.000 C 118.000 315.780,117.595 315.601,117.100 315.601 C 116.523 315.602,117.206 316.111,119.000 317.018 M80.400 318.351 C 80.400 318.598,80.580 318.800,80.800 318.800 C 81.020 318.800,81.200 319.076,81.200 319.413 C 81.200 319.751,81.830 320.657,82.600 321.427 C 83.370 322.197,84.000 322.674,84.000 322.488 C 84.000 322.302,83.460 321.632,82.800 321.000 C 82.140 320.368,81.600 319.636,81.600 319.374 C 81.600 319.112,81.330 318.674,81.000 318.400 C 80.585 318.056,80.400 318.041,80.400 318.351 M126.354 319.243 C 126.787 319.707,127.379 319.991,127.670 319.875 C 128.041 319.727,128.002 319.654,127.543 319.632 C 127.181 319.614,126.782 319.330,126.655 319.000 C 126.529 318.670,126.232 318.400,125.997 318.400 C 125.761 318.400,125.922 318.779,126.354 319.243 M180.170 319.500 C 228.209 319.597,231.389 319.646,232.127 320.302 C 232.892 320.981,232.898 320.975,232.360 320.100 L 231.808 319.200 180.404 319.298 L 129.000 319.397 180.170 319.500 M235.219 321.981 L 237.200 323.962 237.200 331.586 C 237.200 339.258,237.103 339.879,235.621 341.719 C 235.027 342.456,233.220 343.405,231.800 343.726 C 231.303 343.839,231.493 343.925,232.300 343.954 C 233.015 343.979,233.600 343.820,233.600 343.600 C 233.600 343.380,233.878 343.200,234.218 343.200 C 235.018 343.200,236.800 341.418,236.800 340.618 C 236.800 340.278,236.980 340.000,237.200 340.000 C 237.454 340.000,237.597 337.040,237.591 331.900 L 237.581 323.800 235.769 321.900 C 234.772 320.855,233.794 320.000,233.597 320.000 C 233.400 320.000,234.130 320.891,235.219 321.981 M84.897 324.500 C 87.098 326.663,87.924 327.090,86.017 325.080 C 85.036 324.046,84.085 323.200,83.903 323.200 C 83.722 323.200,84.169 323.785,84.897 324.500 M89.200 328.600 C 89.946 329.370,90.647 330.000,90.757 330.000 C 90.867 330.000,90.346 329.370,89.600 328.600 C 88.854 327.830,88.153 327.200,88.043 327.200 C 87.933 327.200,88.454 327.830,89.200 328.600 M94.000 332.469 C 94.000 332.955,95.540 334.400,96.059 334.400 C 96.369 334.400,96.883 334.760,97.200 335.200 C 97.517 335.640,98.097 336.000,98.488 336.000 C 98.880 336.000,99.200 336.180,99.200 336.400 C 99.200 336.620,99.402 336.800,99.649 336.800 C 99.959 336.800,99.944 336.615,99.600 336.200 C 99.326 335.870,98.882 335.600,98.613 335.600 C 98.344 335.600,97.798 335.240,97.400 334.800 C 97.002 334.360,96.491 334.000,96.264 334.000 C 96.037 334.000,95.435 333.609,94.926 333.130 C 94.417 332.652,94.000 332.354,94.000 332.469 M101.343 337.800 C 101.673 338.130,102.271 338.399,102.671 338.398 C 103.192 338.396,103.073 338.224,102.254 337.798 C 100.807 337.043,100.586 337.043,101.343 337.800 M104.146 339.402 C 104.776 339.731,105.543 340.000,105.851 340.000 C 106.510 340.000,108.074 340.829,108.494 341.400 C 108.660 341.626,108.790 341.495,108.794 341.100 C 108.798 340.665,108.498 340.400,108.000 340.400 C 107.560 340.400,107.200 340.220,107.200 340.000 C 107.200 339.780,106.660 339.600,106.000 339.600 C 105.340 339.600,104.800 339.420,104.800 339.200 C 104.800 338.980,104.395 338.801,103.900 338.802 C 103.075 338.805,103.096 338.855,104.146 339.402 M277.500 339.865 C 277.775 339.976,278.000 340.330,278.000 340.652 C 278.000 341.425,279.798 343.200,280.582 343.200 C 280.922 343.200,281.200 343.380,281.200 343.600 C 281.200 343.856,283.907 343.968,288.700 343.910 L 296.200 343.820 289.200 343.711 C 284.776 343.641,281.832 343.424,281.200 343.119 C 279.640 342.366,278.400 341.131,278.400 340.330 C 278.400 339.889,278.123 339.613,277.700 339.632 C 277.282 339.650,277.201 339.744,277.500 339.865 M110.200 341.491 C 110.860 341.585,111.571 341.828,111.780 342.031 C 111.989 342.234,112.559 342.400,113.047 342.400 C 113.534 342.400,114.024 342.625,114.135 342.900 C 114.256 343.199,114.350 343.118,114.368 342.700 C 114.392 342.182,114.088 342.000,113.200 342.000 C 112.540 342.000,112.000 341.820,112.000 341.600 C 112.000 341.380,111.325 341.227,110.500 341.260 C 109.147 341.314,109.118 341.337,110.200 341.491 M297.900 342.157 C 297.594 342.463,296.996 342.802,296.572 342.910 C 295.860 343.092,295.865 343.111,296.638 343.154 C 297.099 343.179,297.802 342.840,298.200 342.400 C 299.015 341.500,298.762 341.295,297.900 342.157 M116.195 343.083 C 117.072 343.180,117.941 343.471,118.125 343.730 C 118.356 344.053,118.410 344.012,118.299 343.600 C 118.189 343.191,117.574 342.985,116.369 342.953 C 114.613 342.907,114.612 342.908,116.195 343.083 M120.512 343.895 C 121.564 343.977,123.184 343.976,124.112 343.892 C 125.040 343.808,124.180 343.741,122.200 343.742 C 120.220 343.743,119.460 343.812,120.512 343.895 " stroke="none" fill="#046888" fill-rule="evenodd"></path><path id="path4" d="M170.868 81.900 C 193.895 81.957,231.695 81.957,254.868 81.900 C 278.041 81.843,259.200 81.796,213.000 81.796 C 166.800 81.796,147.841 81.843,170.868 81.900 M78.100 82.299 C 82.225 82.364,88.975 82.364,93.100 82.299 C 97.225 82.234,93.850 82.181,85.600 82.181 C 77.350 82.181,73.975 82.234,78.100 82.299 M297.600 82.889 C 297.600 83.060,298.635 83.179,299.900 83.154 C 302.341 83.104,302.102 82.928,299.300 82.711 C 298.365 82.638,297.600 82.719,297.600 82.889 M302.792 83.100 C 303.122 83.780,303.542 83.985,304.514 83.940 L 305.800 83.880 304.619 83.706 C 303.969 83.610,303.194 83.232,302.897 82.866 C 302.424 82.284,302.411 82.314,302.792 83.100 M306.748 84.036 C 307.199 84.520,307.837 84.793,308.264 84.683 C 308.889 84.521,308.871 84.486,308.143 84.446 C 307.671 84.421,307.182 84.130,307.055 83.800 C 306.929 83.470,306.632 83.200,306.397 83.200 C 306.161 83.200,306.319 83.576,306.748 84.036 M309.893 84.800 C 310.270 85.240,310.716 85.600,310.885 85.600 C 311.054 85.600,310.884 85.240,310.507 84.800 C 310.130 84.360,309.684 84.000,309.515 84.000 C 309.346 84.000,309.516 84.360,309.893 84.800 M317.881 88.187 C 318.277 88.731,318.743 89.181,318.919 89.187 C 319.094 89.194,318.914 88.756,318.519 88.213 C 318.123 87.669,317.657 87.219,317.481 87.213 C 317.306 87.206,317.486 87.644,317.881 88.187 M320.000 89.637 C 320.000 89.837,320.360 90.000,320.800 90.000 C 321.240 90.000,321.600 90.180,321.600 90.400 C 321.600 90.620,321.920 90.800,322.312 90.800 C 322.703 90.800,323.283 91.160,323.600 91.600 C 323.917 92.040,324.421 92.400,324.720 92.400 C 325.018 92.400,325.954 93.120,326.800 94.000 C 327.646 94.880,328.545 95.600,328.799 95.600 C 329.415 95.600,334.800 100.963,334.800 101.576 C 334.800 101.841,335.070 102.327,335.400 102.657 C 336.130 103.387,336.169 103.094,335.503 101.895 C 334.782 100.599,329.504 95.200,328.957 95.200 C 328.702 95.200,327.843 94.480,327.048 93.600 C 326.253 92.720,325.333 92.000,325.004 92.000 C 324.676 92.000,324.182 91.640,323.907 91.200 C 323.632 90.760,323.101 90.400,322.727 90.400 C 322.353 90.400,321.949 90.242,321.830 90.048 C 321.519 89.545,320.000 89.204,320.000 89.637 M336.400 103.434 C 336.400 103.639,336.760 104.032,337.200 104.307 C 337.640 104.582,338.000 105.126,338.000 105.515 C 338.000 105.905,338.360 106.483,338.800 106.800 C 339.240 107.117,339.600 107.657,339.600 108.000 C 339.600 108.343,339.960 108.883,340.400 109.200 C 340.840 109.517,341.200 110.097,341.200 110.488 C 341.200 110.880,341.380 111.200,341.600 111.200 C 341.820 111.200,342.000 111.560,342.000 112.000 C 342.000 112.440,342.180 112.800,342.400 112.800 C 342.620 112.800,342.800 113.145,342.800 113.567 C 342.800 113.988,342.935 114.393,343.100 114.467 C 343.558 114.670,345.198 117.987,345.213 118.738 C 345.231 119.696,346.400 121.211,346.400 120.276 C 346.400 119.904,346.220 119.600,346.000 119.600 C 345.780 119.600,345.600 119.060,345.600 118.400 C 345.600 117.740,345.420 117.200,345.200 117.200 C 344.980 117.200,344.800 116.840,344.800 116.400 C 344.800 115.960,344.620 115.600,344.400 115.600 C 344.180 115.600,344.000 115.240,344.000 114.800 C 344.000 114.360,343.820 114.000,343.600 114.000 C 343.380 114.000,343.200 113.640,343.200 113.200 C 343.200 112.760,343.020 112.400,342.800 112.400 C 342.580 112.400,342.400 112.040,342.400 111.600 C 342.400 111.160,342.220 110.800,342.000 110.800 C 341.780 110.800,341.600 110.483,341.600 110.096 C 341.600 109.709,341.240 109.168,340.800 108.893 C 340.360 108.618,340.000 108.153,340.000 107.859 C 340.000 107.565,339.640 106.998,339.200 106.600 C 338.760 106.202,338.400 105.665,338.400 105.408 C 338.400 105.150,337.950 104.517,337.400 104.000 C 336.850 103.483,336.400 103.229,336.400 103.434 M96.032 106.700 C 96.050 107.118,96.144 107.199,96.265 106.900 C 96.598 106.075,296.000 106.175,296.000 107.000 C 296.000 107.330,296.186 107.600,296.414 107.600 C 296.695 107.600,296.690 107.342,296.400 106.800 C 295.770 105.622,95.978 105.523,96.032 106.700 M299.700 107.094 C 300.745 107.176,301.600 107.414,301.600 107.622 C 301.600 107.830,302.365 107.971,303.300 107.936 C 304.918 107.875,304.932 107.864,303.600 107.707 C 302.830 107.617,302.029 107.376,301.820 107.171 C 301.611 106.967,300.621 106.832,299.620 106.872 L 297.800 106.944 299.700 107.094 M305.300 108.676 C 305.685 108.776,306.315 108.776,306.700 108.676 C 307.085 108.575,306.770 108.493,306.000 108.493 C 305.230 108.493,304.915 108.575,305.300 108.676 M309.285 110.333 C 310.542 110.947,311.937 111.781,312.385 112.186 C 313.405 113.110,313.445 112.805,312.453 111.661 C 312.042 111.188,311.412 110.800,311.053 110.800 C 310.694 110.800,310.400 110.620,310.400 110.400 C 310.400 110.180,310.040 110.000,309.600 110.000 C 309.160 110.000,308.800 109.820,308.800 109.600 C 308.800 109.380,308.395 109.204,307.900 109.209 C 307.288 109.215,307.731 109.575,309.285 110.333 M314.000 112.692 C 314.000 113.101,318.333 117.425,318.495 117.177 C 318.559 117.079,317.573 115.955,316.305 114.678 C 315.037 113.401,314.000 112.507,314.000 112.692 M320.000 120.656 C 320.000 120.991,321.297 121.971,321.761 121.987 C 321.960 121.994,321.707 121.640,321.200 121.200 C 320.217 120.347,320.000 120.249,320.000 120.656 M321.646 123.500 C 321.621 123.995,321.767 124.400,321.972 124.400 C 322.177 124.400,322.422 124.805,322.518 125.300 C 322.666 126.072,322.699 126.043,322.746 125.100 C 322.775 124.495,322.633 124.000,322.429 124.000 C 322.225 124.000,321.976 123.685,321.876 123.300 C 321.738 122.773,321.681 122.823,321.646 123.500 M347.054 125.070 C 347.303 125.251,347.607 125.760,347.728 126.200 C 347.901 126.831,347.932 126.795,347.874 126.031 C 347.833 125.499,347.530 124.990,347.200 124.901 C 346.804 124.794,346.754 124.851,347.054 125.070 M322.660 126.706 C 322.912 126.868,323.203 127.450,323.305 128.000 C 323.463 128.847,323.499 128.801,323.546 127.700 C 323.587 126.706,323.435 126.401,322.900 126.406 C 322.450 126.410,322.364 126.517,322.660 126.706 M347.860 128.306 C 348.112 128.468,348.403 129.050,348.505 129.600 C 348.663 130.447,348.699 130.401,348.746 129.300 C 348.787 128.306,348.635 128.001,348.100 128.006 C 347.650 128.010,347.564 128.117,347.860 128.306 M324.114 131.400 C 324.117 132.500,324.195 132.903,324.287 132.295 C 324.379 131.686,324.377 130.786,324.282 130.295 C 324.187 129.803,324.111 130.300,324.114 131.400 M348.032 132.267 C 347.971 133.170,348.492 134.000,349.119 134.000 C 349.696 134.000,349.696 133.955,349.122 133.500 C 348.776 133.225,348.396 132.730,348.278 132.400 C 348.160 132.070,348.049 132.010,348.032 132.267 M324.390 134.263 C 324.662 134.398,324.800 141.133,324.800 154.233 L 324.800 174.000 210.633 174.000 C 119.674 174.000,96.426 173.898,96.265 173.500 C 96.144 173.201,96.050 173.282,96.032 173.700 C 96.002 174.365,101.712 174.400,210.604 174.400 L 325.207 174.400 325.104 154.333 C 325.022 138.456,324.894 134.245,324.490 134.163 C 324.210 134.106,324.165 134.151,324.390 134.263 M349.200 176.400 C 349.200 200.779,349.050 218.400,348.843 218.400 C 348.646 218.400,348.383 218.667,348.258 218.994 C 348.067 219.491,348.158 219.508,348.815 219.098 C 349.565 218.630,350.147 134.400,349.400 134.400 C 349.290 134.400,349.200 153.300,349.200 176.400 M324.799 208.519 L 324.999 219.000 325.107 208.827 C 325.166 203.232,325.076 198.516,324.907 198.346 C 324.738 198.177,324.690 202.755,324.799 208.519 M96.193 243.200 C 96.193 267.950,96.241 278.075,96.300 265.700 C 96.359 253.325,96.359 233.075,96.300 220.700 C 96.241 208.325,96.193 218.450,96.193 243.200 M153.668 198.700 C 184.835 198.757,235.955 198.757,267.268 198.700 C 298.580 198.643,273.080 198.597,210.600 198.597 C 148.120 198.597,122.500 198.643,153.668 198.700 M280.884 217.015 C 280.601 217.337,280.545 217.600,280.761 217.600 C 280.976 217.600,281.264 217.420,281.400 217.200 C 281.783 216.580,295.698 216.673,296.401 217.300 C 296.878 217.725,296.882 217.696,296.432 217.100 C 295.702 216.135,281.728 216.059,280.884 217.015 M325.100 219.465 C 325.375 219.576,325.600 220.012,325.600 220.433 C 325.600 220.855,325.780 221.200,326.000 221.200 C 326.220 221.200,326.400 221.483,326.400 221.829 C 326.400 222.174,326.657 222.714,326.971 223.029 C 327.286 223.343,327.826 223.600,328.171 223.600 C 328.517 223.600,328.800 223.780,328.800 224.000 C 328.800 224.252,331.448 224.400,335.944 224.400 L 343.088 224.400 345.544 223.133 C 346.895 222.437,348.000 221.689,348.000 221.471 C 348.000 221.254,347.671 221.374,347.269 221.738 C 346.866 222.102,346.236 222.400,345.869 222.400 C 345.501 222.400,345.200 222.580,345.200 222.800 C 345.200 223.020,344.840 223.200,344.400 223.200 C 343.960 223.200,343.600 223.380,343.600 223.600 C 343.600 223.852,340.933 224.000,336.400 224.000 C 331.867 224.000,329.200 223.852,329.200 223.600 C 329.200 223.380,328.876 223.200,328.480 223.200 C 328.084 223.200,327.544 222.984,327.280 222.720 C 327.016 222.456,326.800 221.916,326.800 221.520 C 326.800 221.124,326.641 220.800,326.447 220.800 C 326.252 220.800,325.999 220.440,325.884 220.000 C 325.769 219.560,325.433 219.214,325.137 219.232 C 324.733 219.255,324.724 219.313,325.100 219.465 M277.297 244.497 L 277.200 268.793 255.300 268.900 L 233.400 269.007 255.313 269.103 C 272.546 269.179,277.266 269.093,277.416 268.700 C 277.521 268.425,277.559 257.400,277.501 244.200 L 277.394 220.200 277.297 244.497 M299.396 221.243 C 299.833 221.770,300.238 222.275,300.296 222.367 C 300.353 222.458,300.400 222.277,300.400 221.963 C 300.400 221.649,299.995 221.144,299.500 220.840 L 298.600 220.287 299.396 221.243 M311.100 269.100 C 317.095 269.162,326.905 269.162,332.900 269.100 C 338.895 269.038,333.990 268.987,322.000 268.987 C 310.010 268.987,305.105 269.038,311.100 269.100 M346.400 269.570 C 346.400 269.734,346.940 270.349,347.600 270.937 C 348.260 271.525,348.800 271.865,348.800 271.692 C 348.800 271.519,348.260 270.904,347.600 270.325 C 346.940 269.746,346.400 269.406,346.400 269.570 M229.224 270.971 C 228.954 271.296,228.818 271.885,228.921 272.281 C 229.072 272.866,229.116 272.838,229.154 272.133 C 229.179 271.657,229.425 271.186,229.700 271.088 C 229.975 270.990,230.091 270.791,229.957 270.645 C 229.823 270.500,229.493 270.646,229.224 270.971 M228.090 280.100 C 228.032 284.893,228.144 287.600,228.400 287.600 C 228.620 287.600,228.800 287.878,228.800 288.218 C 228.800 289.018,230.582 290.800,231.382 290.800 C 231.722 290.800,232.000 290.980,232.000 291.200 C 232.000 291.462,239.799 291.600,254.597 291.600 L 277.194 291.600 277.300 315.500 L 277.406 339.400 277.503 315.300 L 277.600 291.200 255.195 291.200 C 238.014 291.200,232.581 291.083,231.895 290.700 C 228.733 288.933,228.436 288.017,228.296 279.600 L 228.180 272.600 228.090 280.100 M349.200 286.367 C 349.200 286.788,348.975 287.224,348.700 287.335 C 348.401 287.456,348.482 287.550,348.900 287.568 C 349.388 287.590,349.600 287.298,349.600 286.600 C 349.600 286.050,349.510 285.600,349.400 285.600 C 349.290 285.600,349.200 285.945,349.200 286.367 M347.461 289.376 C 346.897 289.939,346.158 290.400,345.818 290.400 C 345.478 290.400,345.200 290.580,345.200 290.800 C 345.200 291.062,337.408 291.200,322.624 291.200 C 310.207 291.200,299.964 291.335,299.862 291.500 C 299.469 292.134,344.499 291.641,345.800 290.997 C 347.311 290.249,348.982 288.848,348.699 288.566 C 348.581 288.448,348.024 288.812,347.461 289.376 M71.720 294.800 C 71.720 296.010,71.795 296.505,71.887 295.900 C 71.978 295.295,71.978 294.305,71.887 293.700 C 71.795 293.095,71.720 293.590,71.720 294.800 M100.287 298.413 C 100.404 298.860,100.837 299.406,101.250 299.627 C 101.662 299.848,102.000 300.372,102.000 300.791 C 102.000 301.211,102.338 301.792,102.752 302.082 C 103.166 302.371,103.595 302.967,103.706 303.404 C 103.888 304.125,103.912 304.116,103.954 303.303 C 103.980 302.802,103.647 302.187,103.200 301.907 C 102.760 301.632,102.400 301.092,102.400 300.707 C 102.400 300.322,102.040 299.782,101.600 299.507 C 101.160 299.232,100.800 298.691,100.800 298.304 C 100.800 297.917,100.637 297.600,100.437 297.600 C 100.238 297.600,100.171 297.966,100.287 298.413 M72.454 299.500 C 72.425 300.215,72.580 300.800,72.800 300.800 C 73.020 300.800,73.200 301.520,73.200 302.400 C 73.200 303.280,73.380 304.000,73.600 304.000 C 73.820 304.000,74.000 304.540,74.000 305.200 C 74.000 305.860,74.135 306.401,74.300 306.403 C 74.648 306.407,75.600 308.334,75.600 309.034 C 75.600 309.295,75.869 310.024,76.198 310.654 C 76.745 311.704,76.795 311.725,76.798 310.900 C 76.799 310.405,76.620 310.000,76.400 310.000 C 76.180 310.000,76.000 309.460,76.000 308.800 C 76.000 308.140,75.820 307.600,75.600 307.600 C 75.380 307.600,75.200 307.240,75.200 306.800 C 75.200 306.360,75.020 306.000,74.800 306.000 C 74.580 306.000,74.400 305.561,74.400 305.024 C 74.400 304.487,74.220 303.936,74.000 303.800 C 73.780 303.664,73.600 302.969,73.600 302.256 C 73.600 301.543,73.435 300.789,73.234 300.580 C 73.032 300.371,72.787 299.750,72.688 299.200 C 72.538 298.362,72.500 298.410,72.454 299.500 M104.400 304.242 C 104.400 304.452,104.760 304.883,105.200 305.200 C 105.640 305.517,106.000 306.010,106.000 306.296 C 106.000 306.998,111.040 312.000,111.748 312.000 C 112.057 312.000,112.735 312.538,113.255 313.196 C 113.775 313.854,114.515 314.394,114.900 314.396 C 115.285 314.398,115.600 314.580,115.600 314.800 C 115.600 315.020,115.802 315.200,116.049 315.200 C 116.359 315.200,116.344 315.015,116.000 314.600 C 115.726 314.270,115.288 314.000,115.026 314.000 C 114.764 314.000,114.032 313.460,113.400 312.800 C 112.768 312.140,112.054 311.600,111.814 311.600 C 111.257 311.600,106.400 306.719,106.400 306.159 C 106.400 305.928,105.950 305.317,105.400 304.800 C 104.850 304.283,104.400 304.032,104.400 304.242 M78.002 313.900 C 78.001 314.395,78.180 314.800,78.400 314.800 C 78.620 314.800,78.821 315.205,78.846 315.700 C 78.875 316.250,78.958 316.357,79.061 315.975 C 79.154 315.631,78.954 314.821,78.617 314.175 C 78.063 313.111,78.005 313.085,78.002 313.900 M119.000 317.018 C 120.540 317.796,122.103 318.355,122.474 318.261 C 122.845 318.166,123.244 318.339,123.362 318.644 C 123.479 318.950,123.773 319.200,124.016 319.200 C 124.259 319.200,124.145 318.888,123.763 318.506 C 123.382 318.125,122.649 317.867,122.135 317.935 C 121.621 318.002,121.200 317.864,121.200 317.629 C 121.200 317.393,120.840 317.200,120.400 317.200 C 119.960 317.200,119.600 317.020,119.600 316.800 C 119.600 316.580,119.240 316.400,118.800 316.400 C 118.360 316.400,118.000 316.220,118.000 316.000 C 118.000 315.780,117.595 315.601,117.100 315.601 C 116.523 315.602,117.206 316.111,119.000 317.018 M80.400 318.351 C 80.400 318.598,80.580 318.800,80.800 318.800 C 81.020 318.800,81.200 319.076,81.200 319.413 C 81.200 319.751,81.830 320.657,82.600 321.427 C 83.370 322.197,84.000 322.674,84.000 322.488 C 84.000 322.302,83.460 321.632,82.800 321.000 C 82.140 320.368,81.600 319.636,81.600 319.374 C 81.600 319.112,81.330 318.674,81.000 318.400 C 80.585 318.056,80.400 318.041,80.400 318.351 M126.354 319.243 C 126.787 319.707,127.379 319.991,127.670 319.875 C 128.041 319.727,128.002 319.654,127.543 319.632 C 127.181 319.614,126.782 319.330,126.655 319.000 C 126.529 318.670,126.232 318.400,125.997 318.400 C 125.761 318.400,125.922 318.779,126.354 319.243 M180.170 319.500 C 228.209 319.597,231.389 319.646,232.127 320.302 C 232.892 320.981,232.898 320.975,232.360 320.100 L 231.808 319.200 180.404 319.298 L 129.000 319.397 180.170 319.500 M235.219 321.981 L 237.200 323.962 237.200 331.586 C 237.200 339.258,237.103 339.879,235.621 341.719 C 235.027 342.456,233.220 343.405,231.800 343.726 C 231.303 343.839,231.493 343.925,232.300 343.954 C 233.015 343.979,233.600 343.820,233.600 343.600 C 233.600 343.380,233.878 343.200,234.218 343.200 C 235.018 343.200,236.800 341.418,236.800 340.618 C 236.800 340.278,236.980 340.000,237.200 340.000 C 237.454 340.000,237.597 337.040,237.591 331.900 L 237.581 323.800 235.769 321.900 C 234.772 320.855,233.794 320.000,233.597 320.000 C 233.400 320.000,234.130 320.891,235.219 321.981 M84.897 324.500 C 87.098 326.663,87.924 327.090,86.017 325.080 C 85.036 324.046,84.085 323.200,83.903 323.200 C 83.722 323.200,84.169 323.785,84.897 324.500 M89.200 328.600 C 89.946 329.370,90.647 330.000,90.757 330.000 C 90.867 330.000,90.346 329.370,89.600 328.600 C 88.854 327.830,88.153 327.200,88.043 327.200 C 87.933 327.200,88.454 327.830,89.200 328.600 M94.000 332.469 C 94.000 332.955,95.540 334.400,96.059 334.400 C 96.369 334.400,96.883 334.760,97.200 335.200 C 97.517 335.640,98.097 336.000,98.488 336.000 C 98.880 336.000,99.200 336.180,99.200 336.400 C 99.200 336.620,99.402 336.800,99.649 336.800 C 99.959 336.800,99.944 336.615,99.600 336.200 C 99.326 335.870,98.882 335.600,98.613 335.600 C 98.344 335.600,97.798 335.240,97.400 334.800 C 97.002 334.360,96.491 334.000,96.264 334.000 C 96.037 334.000,95.435 333.609,94.926 333.130 C 94.417 332.652,94.000 332.354,94.000 332.469 M101.343 337.800 C 101.673 338.130,102.271 338.399,102.671 338.398 C 103.192 338.396,103.073 338.224,102.254 337.798 C 100.807 337.043,100.586 337.043,101.343 337.800 M104.146 339.402 C 104.776 339.731,105.543 340.000,105.851 340.000 C 106.510 340.000,108.074 340.829,108.494 341.400 C 108.660 341.626,108.790 341.495,108.794 341.100 C 108.798 340.665,108.498 340.400,108.000 340.400 C 107.560 340.400,107.200 340.220,107.200 340.000 C 107.200 339.780,106.660 339.600,106.000 339.600 C 105.340 339.600,104.800 339.420,104.800 339.200 C 104.800 338.980,104.395 338.801,103.900 338.802 C 103.075 338.805,103.096 338.855,104.146 339.402 M277.500 339.865 C 277.775 339.976,278.000 340.330,278.000 340.652 C 278.000 341.425,279.798 343.200,280.582 343.200 C 280.922 343.200,281.200 343.380,281.200 343.600 C 281.200 343.856,283.907 343.968,288.700 343.910 L 296.200 343.820 289.200 343.711 C 284.776 343.641,281.832 343.424,281.200 343.119 C 279.640 342.366,278.400 341.131,278.400 340.330 C 278.400 339.889,278.123 339.613,277.700 339.632 C 277.282 339.650,277.201 339.744,277.500 339.865 M110.200 341.491 C 110.860 341.585,111.571 341.828,111.780 342.031 C 111.989 342.234,112.559 342.400,113.047 342.400 C 113.534 342.400,114.024 342.625,114.135 342.900 C 114.256 343.199,114.350 343.118,114.368 342.700 C 114.392 342.182,114.088 342.000,113.200 342.000 C 112.540 342.000,112.000 341.820,112.000 341.600 C 112.000 341.380,111.325 341.227,110.500 341.260 C 109.147 341.314,109.118 341.337,110.200 341.491 M297.900 342.157 C 297.594 342.463,296.996 342.802,296.572 342.910 C 295.860 343.092,295.865 343.111,296.638 343.154 C 297.099 343.179,297.802 342.840,298.200 342.400 C 299.015 341.500,298.762 341.295,297.900 342.157 M116.195 343.083 C 117.072 343.180,117.941 343.471,118.125 343.730 C 118.356 344.053,118.410 344.012,118.299 343.600 C 118.189 343.191,117.574 342.985,116.369 342.953 C 114.613 342.907,114.612 342.908,116.195 343.083 M120.512 343.895 C 121.564 343.977,123.184 343.976,124.112 343.892 C 125.040 343.808,124.180 343.741,122.200 343.742 C 120.220 343.743,119.460 343.812,120.512 343.895 " stroke="none" fill="#046888" fill-rule="evenodd"></path></g></svg>